<svg xmlns="http://www.w3.org/2000/svg" width="23" height="23" viewBox="0 0 23 23"><defs><style>.a{fill:none;stroke:#778dfc;stroke-linecap:round;fill-rule:evenodd;}.b{fill:#778dfc;}</style></defs><g transform="translate(-303.5 -40.5)"><path class="a" d="M22,16.534V20a2,2,0,0,1-2,2H17.1M4.663,22H2a2,2,0,0,1-2-2V16.534H0M0,5.668V2A2,2,0,0,1,2,0H4.663M17.1,0H20a2,2,0,0,1,2,2V5.668h0" transform="translate(304 41)"/><g transform="translate(308 45)"><path class="b" d="M8.167,11.433a.545.545,0,0,1,.539.467h2.183a.544.544,0,0,1,0,1.089H8.633a1.011,1.011,0,0,1-1.011-1.011A.544.544,0,0,1,8.167,11.433Zm-2.8-3.811A1.011,1.011,0,0,1,6.378,8.633v3.344a1.011,1.011,0,0,1-1.011,1.011H2.022a1.011,1.011,0,0,1-1.011-1.011V8.633A1.011,1.011,0,0,1,2.022,7.622Zm7.078,3.5a.544.544,0,0,1,.544.544v.544a.544.544,0,0,1-1.089,0v-.544A.544.544,0,0,1,12.444,11.122ZM5.289,8.711H2.1V11.9H5.289Zm4.1-1.089a.544.544,0,0,1,0,1.089H8.711v1.637a.544.544,0,1,1-1.089,0V8.633A1.011,1.011,0,0,1,8.633,7.622Zm1.115,2.1a.544.544,0,0,1,.088,1.082l-.088.007h-.389a.544.544,0,0,1-.088-1.082l.088-.007Zm-6.611,0A.544.544,0,0,1,3.977,10.8l-.088.007H3.5a.544.544,0,0,1-.088-1.082L3.5,9.722Zm8.089-2.1a1.011,1.011,0,0,1,1.011,1.011v1.478a.544.544,0,1,1-1.089,0v-1.4h-.719a.544.544,0,0,1,0-1.089Zm0-6.611a1.011,1.011,0,0,1,1.011,1.011V5.367a1.011,1.011,0,0,1-1.011,1.011H8.633A1.011,1.011,0,0,1,7.622,5.367V2.022A1.011,1.011,0,0,1,8.633,1.011Zm-6.611,0A1.011,1.011,0,0,1,6.378,2.022V5.367A1.011,1.011,0,0,1,5.367,6.378H2.022A1.011,1.011,0,0,1,1.011,5.367V2.022A1.011,1.011,0,0,1,2.022,1.011ZM11.9,2.1H8.711V5.289H11.9Zm-6.611,0H2.1V5.289H5.289ZM10.5,3.189a.544.544,0,0,1,.088,1.082l-.088.007h-.389A.544.544,0,0,1,10.023,3.2l.088-.007Zm-6.611,0a.544.544,0,1,1,0,1.089H3.5a.544.544,0,0,1,0-1.089h.389Z"/></g></g></svg>