<?xml version="1.0" encoding="UTF-8"?>
<svg width="99px" height="83px" viewBox="0 0 99 83" version="1.1" xmlns="http://www.w3.org/2000/svg" xmlns:xlink="http://www.w3.org/1999/xlink">
    <!-- Generator: Sketch 59.1 (86144) - https://sketch.com -->
    <title>illust</title>
    <desc>Created with Sketch.</desc>
    <g id="Onboard_ONOV-2019" stroke="none" stroke-width="1" fill="none" fill-rule="evenodd">
        <g id="Disclaimer" transform="translate(-29.000000, -51.000000)">
            <g id="illust" transform="translate(30.000000, 52.000000)">
                <path d="M16.5188618,30.1149831 C19.6280679,26.7685957 34.9185566,28.2382058 42.7130643,35.0286303 C50.507572,41.8190547 53.1568281,57.2763595 50.7142099,59.9053093 C49.0857978,61.6579425 32.1810612,68.6895061 -6.11066753e-13,81 C8.93977052,49.3075804 14.4460578,32.3459081 16.5188618,30.1149831 Z" id="Rectangle" stroke="#FFFFFF" fill="#FFFFFF" stroke-linejoin="round"></path>
                <path d="M16.5188618,30.1149831 C19.1314359,27.2036696 33.731042,27.2036696 42.7130643,35.0286303 C51.6950865,42.8535909 52.7718751,57.6123738 50.7142251,59.9053093 C48.6565752,62.1982449 33.7654087,63.4495859 24.4730828,55.3542949 C15.180757,47.2590039 13.9062877,33.0262967 16.5188618,30.1149831 Z" id="Path-11" stroke="#FFFFFF" fill="#1A56F0" stroke-linejoin="round"></path>
                <path d="M31.6151969,1.42108547e-14 C32.9225629,3.0581001 33.3612497,6.32213902 32.9312574,9.79211676 C32.2862689,14.9970834 27.7068946,15.156851 27.0386262,20.5496833 C26.3703577,25.9425156 29.8928711,26.4509207 29.1592225,32.3713618 C28.6701234,36.3183225 26.9503826,39.2575807 24,41.1891365" id="Path-12" stroke="#FFFFFF" stroke-width="2" stroke-linecap="round" stroke-linejoin="round"></path>
                <circle id="Oval" fill="#1A56F0" cx="17" cy="18" r="1"></circle>
                <circle id="Oval-Copy-3" fill="#1A56F0" cx="60" cy="41" r="1"></circle>
                <circle id="Oval-Copy" fill="#1A56F0" cx="46" cy="11" r="2"></circle>
                <circle id="Oval-Copy-4" fill="#1A56F0" cx="77" cy="30" r="2"></circle>
                <circle id="Oval-Copy-2" fill="#1A56F0" cx="56" cy="72" r="2"></circle>
                <path d="M63.7858324,5 C58.3761647,8.53970819 55.4563346,12.0445511 55.0263423,15.5145289 C54.3813538,20.7194955 60.4310532,23.6789704 59.7627847,29.0718027 C59.0945163,34.464635 51.8757792,32.0866407 49.8658538,38.9054975 C48.5259036,43.4514021 48.7411812,47.4267974 50.5116868,50.8316834" id="Path-12-Copy" stroke="#FFFFFF" stroke-width="2" stroke-linecap="round" stroke-linejoin="round" transform="translate(56.392916, 27.915842) rotate(39.000000) translate(-56.392916, -27.915842) "></path>
                <path d="M66.4454078,31 C60.9242296,34.0052359 57.9486443,37.2428427 57.518652,40.7128205 C56.8736635,45.9177871 60.4397952,48.8645817 59.7715268,54.257414 C59.1032583,59.6502463 53.8399808,59.8158887 53.1063322,65.7363298 C52.6172331,69.6832905 53.8154262,73.0143208 56.7009113,75.7294207" id="Path-12-Copy-2" stroke="#FFFFFF" stroke-width="2" stroke-linecap="round" stroke-linejoin="round" transform="translate(59.722704, 53.364710) rotate(80.000000) translate(-59.722704, -53.364710) "></path>
                <path d="M2.64690884,14 L2.64690884,17.2938177 M1,15.6469088 L4.29381769,15.6469088" id="Combined-Shape" stroke="#FFFFFF" stroke-linecap="round" stroke-linejoin="round"></path>
                <path d="M95.6469088,23 L95.6469088,26.2938177 M94,24.6469088 L97.2938177,24.6469088" id="Combined-Shape-Copy" stroke="#FFFFFF" stroke-linecap="round" stroke-linejoin="round"></path>
                <path d="M60.6469088,2 L60.6469088,5.29381769 M59,3.64690884 L62.2938177,3.64690884" id="Combined-Shape-Copy-3" stroke="#FFFFFF" stroke-linecap="round" stroke-linejoin="round"></path>
                <path d="M45.6469088,72 L45.6469088,75.2938177 M44,73.6469088 L47.2938177,73.6469088" id="Combined-Shape-Copy-2" stroke="#FFFFFF" stroke-linecap="round" stroke-linejoin="round"></path>
            </g>
        </g>
    </g>
</svg>