<svg xmlns="http://www.w3.org/2000/svg" width="24" height="24" viewBox="0 0 24 24">
  <g id="OMG_Contract" data-name="OMG Contract" transform="translate(-9 -40)">
    <rect id="Rectangle_13" data-name="Rectangle 13" width="24" height="24" transform="translate(9 40)" fill="#4967ff"/>
    <path id="Union_1" data-name="Union 1" d="M-1004.1-2053.462a2.306,2.306,0,0,1,2.334-2.531,1.9,1.9,0,0,1,2.075,1.694h-.9a1.079,1.079,0,0,0-1.2-.864c-.966,0-1.422.755-1.422,1.674,0,.979.517,1.66,1.442,1.66a1.121,1.121,0,0,0,1.231-1.02h-1.368v-.823h2.218v2.551h-.823v-.544a1.532,1.532,0,0,1-1.395.667A2.238,2.238,0,0,1-1004.1-2053.462Zm-10.9-.034a2.6,2.6,0,0,1,.646-1.777,2.293,2.293,0,0,1,1.742-.726,2.3,2.3,0,0,1,1.743.726,2.606,2.606,0,0,1,.645,1.777,2.338,2.338,0,0,1-2.388,2.5A2.339,2.339,0,0,1-1015-2053.5Zm.9,0a1.49,1.49,0,0,0,1.49,1.646,1.49,1.49,0,0,0,1.49-1.646,1.493,1.493,0,0,0-1.49-1.653A1.493,1.493,0,0,0-1014.1-2053.5Zm8.554,2.374v-3.354l-1.225,3.354h-.8l-1.225-3.354v3.354h-.81v-4.762h1.123l1.32,3.64,1.32-3.64h1.123v4.762Z" transform="translate(1028 2106)" fill="#fff" stroke="rgba(0,0,0,0)" stroke-miterlimit="10" stroke-width="1"/>
  </g>
</svg>
