<?xml version="1.0" encoding="UTF-8"?>
<svg width="105px" height="76px" viewBox="0 0 105 76" version="1.1" xmlns="http://www.w3.org/2000/svg" xmlns:xlink="http://www.w3.org/1999/xlink">
    <!-- Generator: Sketch 59.1 (86144) - https://sketch.com -->
    <title>Group 8</title>
    <desc>Created with Sketch.</desc>
    <g id="Onboard_ONOV-2019" stroke="none" stroke-width="1" fill="none" fill-rule="evenodd">
        <g id="Empty-wallet-_Plasma__After-dismiss-tooltip" transform="translate(-128.000000, -368.000000)">
            <g id="Empty-state" transform="translate(92.390826, 368.000000)">
                <g id="Group-9" transform="translate(0.609174, 0.000000)">
                    <g id="Group-8" transform="translate(20.000000, 0.000000)">
                        <path d="M20.25,1 L102.5,1 L102.5,1 L102.5,74.75 L20.25,74.75 C18.040861,74.75 16.25,72.959139 16.25,70.75 L16.25,5 C16.25,2.790861 18.040861,1 20.25,1 Z" id="Rectangle" stroke="#ABB2C2" fill="#E4E7ED"></path>
                        <path d="M48.7331235,42.2707171 C54.2401867,42.2707171 58.7045436,46.7350739 58.7045436,52.2421372 C58.7045436,57.7492005 54.2401867,62.2135573 48.7331235,62.2135573 C43.2260602,62.2135573 38.7617033,57.7492005 38.7617033,52.2421372 C38.7617033,46.7350739 43.2260602,42.2707171 48.7331235,42.2707171 Z M48.7331235,45.2940733 C44.8938616,45.2940733 41.7815249,48.40641 41.7815249,52.2456719 C41.7815249,56.0849338 44.8938616,59.1972705 48.7331235,59.1972705 C52.5696955,59.1907843 55.6782359,56.0822439 55.6847221,52.2456719 C55.6847221,48.40641 52.5723854,45.2940733 48.7331235,45.2940733 Z M58.7021871,21.0000018 L58.7021871,24.0162905 L55.8744182,24.0162905 C59.1864841,27.4175598 59.6428327,32.6817071 56.9654896,36.6021978 C54.2881466,40.5226886 49.2188794,42.0133367 44.845516,40.166148 C40.4721526,38.3189594 38.006349,33.6457043 38.9500928,28.9929889 C39.8938367,24.3402734 43.9856604,20.9971492 48.7331235,21.0000018 L48.7331235,21.0000018 L58.7021871,21.0000018 Z M70.0285799,21.0000037 C75.5356431,21.0000037 80,25.4643605 80,30.9714238 C80,36.4784871 75.5356431,40.9428439 70.0285799,40.9428439 C64.5215166,40.9428439 60.0571597,36.4784871 60.0571597,30.9714238 C60.0571597,25.4643605 64.5215166,21.0000037 70.0285799,21.0000037 Z M70.0285799,24.0233599 C66.189318,24.0233599 63.0769813,27.1356966 63.0769813,30.9749585 C63.0769813,34.8142204 66.189318,37.9265571 70.0285799,37.9265571 C73.8651519,37.9200709 76.9736923,34.8115305 76.9801784,30.9749585 C76.9801784,27.1356966 73.8678417,24.0233599 70.0285799,24.0233599 Z M48.7331235,24.0198252 C44.8938616,24.0198252 41.7815249,27.1321619 41.7815249,30.9714238 C41.7815249,34.8106857 44.8938616,37.9230224 48.7331235,37.9230224 C52.5723854,37.9230224 55.6847221,34.8106857 55.6847221,30.9714238 L55.6847221,30.9714238 C55.6817654,27.1334743 52.5710758,24.0243655 48.7331235,24.0198252 Z" id="Combined-Shape" fill="#FFFFFF" fill-rule="nonzero"></path>
                        <path d="M118.75,74.75 L102.5,74.75 M102.5,1 L118.75,1" id="Shape" stroke="#ABB2C2"></path>
                        <line x1="103.125" y1="10.375" x2="16.875" y2="10.375" id="Line-4" stroke="#FFFFFF" stroke-linecap="square"></line>
                        <line x1="119.375" y1="10.375" x2="103.75" y2="10.375" id="Line-4-Copy" stroke="#E4E7ED" stroke-linecap="square"></line>
                    </g>
                </g>
            </g>
        </g>
    </g>
</svg>