<svg width="81" height="80" viewBox="0 0 81 80" fill="none" xmlns="http://www.w3.org/2000/svg">
<circle cx="42.5" cy="41.5" r="38" stroke="#585868"/>
<circle cx="38.5" cy="38.5" r="38" fill="#585868" stroke="#585868"/>
<path d="M38.5339 26.6C33.4459 26.6 31.2059 31.112 31.2059 38.024C31.2059 44.84 33.4139 49.352 38.4699 49.352C43.4939 49.352 45.7979 44.872 45.7979 37.992C45.7979 31.144 43.5579 26.6 38.5339 26.6ZM38.4059 28.712C40.9019 28.712 42.3739 30.632 43.0779 33.48L33.5739 40.328C33.4779 39.528 33.4459 38.696 33.4459 37.832C33.4459 32.36 34.9499 28.712 38.4059 28.712ZM43.5259 38.12C43.4939 43.432 42.0859 47.24 38.5339 47.24C36.0699 47.24 34.5979 45.384 33.8939 42.408L43.3979 35.56C43.4939 36.392 43.5259 37.224 43.5259 38.12Z" fill="#101010"/>
</svg>
