<?xml version="1.0" encoding="UTF-8"?>
<svg width="151px" height="96px" viewBox="0 0 151 96" version="1.1" xmlns="http://www.w3.org/2000/svg" xmlns:xlink="http://www.w3.org/1999/xlink">
    <!-- Generator: Sketch 59.1 (86144) - https://sketch.com -->
    <title>CTA2</title>
    <desc>Created with Sketch.</desc>
    <g id="Onboard_ONOV-2019" stroke="none" stroke-width="1" fill="none" fill-rule="evenodd">
        <g id="When-have-some-fund-on-rootchain_Empty_Plasma__After-dismiss-tooltip" transform="translate(-106.000000, -349.000000)">
            <g id="Empty-state" transform="translate(87.390826, 329.000000)">
                <g id="Group-9" transform="translate(19.609174, 0.000000)">
                    <g id="CTA2" transform="translate(0.000000, 20.000000)">
                        <path d="M74.566474,31.2138728 L145.349711,31.2138728 C147.55885,31.2138728 149.349711,33.0047338 149.349711,35.2138728 L149.349711,91.1589595 C149.349711,93.3680985 147.55885,95.1589595 145.349711,95.1589595 L74.566474,95.1589595 L74.566474,95.1589595 L74.566474,31.2138728 Z" id="Rectangle" stroke="#ABB2C2"></path>
                        <g id="ETH" transform="translate(102.312139, 51.156069)" stroke="#D0D6E2" stroke-linecap="round" stroke-linejoin="round" stroke-width="2.3">
                            <polygon id="Path-4" points="0 17.0860252 10.4046243 1.24344979e-14 20.8092486 17.0860252 10.4046243 33.6620197"></polygon>
                            <polyline id="Path-5" points="20.0088928 16.80747 10.4046243 22.5678077 0.800355714 16.80747"></polyline>
                            <polyline id="Path-6" points="10.4046243 8.84625706e-13 10.4046243 20.9670963 10.4046243 30.5076766"></polyline>
                        </g>
                        <line x1="149.241329" y1="39.3424855" x2="75.5419075" y2="39.3424855" id="Line-4" stroke="#D0D6E2"></line>
                        <path d="M4,31.2138728 L74.783237,31.2138728 L74.783237,31.2138728 L74.783237,95.1589595 L4,95.1589595 C1.790861,95.1589595 4.19476067e-15,93.3680985 0,91.1589595 L0,35.2138728 C-2.705415e-16,33.0047338 1.790861,31.2138728 4,31.2138728 Z" id="Rectangle-Copy" stroke="#ABB2C2" fill="#E4E7ED"></path>
                        <path d="M28.8356169,66.5234877 C33.263261,66.5234877 36.8525758,70.1128025 36.8525758,74.5404466 C36.8525758,78.9680908 33.263261,82.5574055 28.8356169,82.5574055 C24.4079727,82.5574055 20.818658,78.9680908 20.818658,74.5404466 C20.818658,70.1128025 24.4079727,66.5234877 28.8356169,66.5234877 Z M28.8356169,68.9542471 C25.7488745,68.9542471 23.2465755,71.4565462 23.2465755,74.5432885 C23.2465755,77.6300308 25.7488745,80.1323299 28.8356169,80.1323299 C31.9201966,80.1271151 34.4194434,77.6278682 34.4246583,74.5432885 C34.4246583,71.4565462 31.9223592,68.9542471 28.8356169,68.9542471 Z M36.8506812,49.4219668 L36.8506812,51.8470439 L34.5771728,51.8470439 C37.2400529,54.5816429 37.6069543,58.8139842 35.4543873,61.966034 C33.3018204,65.1180838 29.2261616,66.3165555 25.710005,64.8314275 C22.1938484,63.3462995 20.2113578,59.5890318 20.9701219,55.848278 C21.7288861,52.1075241 25.0186865,49.4196733 28.8356169,49.4219668 L28.8356169,49.4219668 L36.8506812,49.4219668 Z M45.9570295,49.4219683 C50.3846737,49.4219683 53.9739884,53.011283 53.9739884,57.4389272 C53.9739884,61.8665713 50.3846737,65.4558861 45.9570295,65.4558861 C41.5293854,65.4558861 37.9400706,61.8665713 37.9400706,57.4389272 C37.9400706,53.011283 41.5293854,49.4219683 45.9570295,49.4219683 Z M45.9570295,51.8527276 C42.8702872,51.8527276 40.3679881,54.3550267 40.3679881,57.441769 C40.3679881,60.5285114 42.8702872,63.0308105 45.9570295,63.0308105 C49.0416092,63.0255956 51.5408561,60.5263487 51.546071,57.441769 C51.546071,54.3550267 49.0437719,51.8527276 45.9570295,51.8527276 Z M28.8356169,51.8498857 C25.7488745,51.8498857 23.2465755,54.3521848 23.2465755,57.4389272 C23.2465755,60.5256695 25.7488745,63.0279686 28.8356169,63.0279686 C31.9223592,63.0279686 34.4246583,60.5256695 34.4246583,57.4389272 L34.4246583,57.4389272 C34.4222812,54.35324 31.9213063,51.8535361 28.8356169,51.8498857 Z" id="Combined-Shape" fill="#FFFFFF" fill-rule="nonzero"></path>
                        <path d="M132.225434,13.0057803 C138.690038,13.0057803 143.930636,18.2463779 143.930636,24.7109827 C143.930636,31.1755874 138.690038,36.416185 132.225434,36.416185 C125.760829,36.416185 120.520231,31.1755874 120.520231,24.7109827 C120.520231,18.2463779 125.760829,13.0057803 132.225434,13.0057803 Z" id="Combined-Shape" fill="#ABB2C2"></path>
                        <path d="M106.213873,29.4797688 C111.937657,29.4797688 116.701894,33.5880808 117.718656,39.0167774 L94.7090896,39.0167774 C95.7258514,33.5880808 100.490088,29.4797688 106.213873,29.4797688 Z" id="Combined-Shape" fill="#ABB2C2"></path>
                        <line x1="74.6748555" y1="39.3424855" x2="0.975433526" y2="39.3424855" id="Line-4-Copy" stroke="#FFFFFF"></line>
                        <path id="Path-2" d="M37.5221031,13.252978 L37.6123219,13.254736 C37.8868291,13.284742 38.0850366,13.5315988 38.0550307,13.806106 L38.0550307,13.806106 L37.1542415,22.0469113 L44.6645976,18.5373753 C44.9147731,18.4204701 45.2123509,18.528507 45.3292561,18.7786825 C45.4461613,19.028858 45.3381244,19.3264357 45.0879489,19.4433409 L45.0879489,19.4433409 L36.77229,23.3291892 C36.4190555,23.4942531 36.0212081,23.2094655 36.0635749,22.8218758 L36.0635749,22.8218758 L37.0609518,13.6974449 C37.0909578,13.4229376 37.3378146,13.2247301 37.6123219,13.254736 Z M39.5436259,17.8499385 C39.7043586,17.6253954 40.0166864,17.5736669 40.2412295,17.7343997 C40.4657726,17.8951324 40.5175011,18.2074602 40.3567683,18.4320033 L40.3567683,18.4320033 L38.6105741,20.8714306 C38.4498414,21.0959737 38.1375136,21.1477022 37.9129705,20.9869695 C37.6884274,20.8262367 37.6366989,20.5139089 37.7974317,20.2893659 L37.7974317,20.2893659 Z M109.955703,16.9968282 C110.177512,16.8323433 110.490665,16.8788139 110.65515,17.1006231 C111.251218,17.9044257 111.825777,18.7370005 112.378828,19.5983281 C112.528028,19.830694 112.460609,20.1400145 112.228243,20.2892147 C111.995878,20.4384149 111.686557,20.3709959 111.537357,20.13863 C110.996355,19.2960687 110.434538,18.481957 109.851908,17.6962756 C109.687423,17.4744664 109.733894,17.1613131 109.955703,16.9968282 Z M43.4129345,13.1537089 C43.6043121,12.954638 43.9208332,12.9484013 44.1199041,13.1397789 C44.318975,13.3311564 44.3252118,13.6476775 44.1338342,13.8467484 C43.4565541,14.5512552 42.7929074,15.2856248 42.142897,16.0498722 C41.9639899,16.2602216 41.6484352,16.2857106 41.4380858,16.1068034 C41.2277364,15.9278963 41.2022474,15.6123416 41.3811545,15.4019922 C42.0442336,14.6223795 42.7214927,13.8729468 43.4129345,13.1537089 Z M105.987589,12.4965248 C106.182899,12.3013099 106.499481,12.3013866 106.694696,12.496696 C107.406001,13.2083459 108.094125,13.9511251 108.759058,14.7250087 C108.93902,14.9344569 108.915116,15.2501356 108.705668,15.4300969 C108.496219,15.6100582 108.180541,15.5861543 108.000579,15.3767061 C107.351956,14.6218044 106.680905,13.8974546 105.987418,13.2036316 C105.792203,13.0083221 105.79228,12.6917396 105.987589,12.4965248 Z M47.9171977,9.05331468 C48.1338121,8.88204652 48.4482531,8.91880698 48.6195213,9.13542145 C48.7907895,9.35203593 48.754029,9.66647693 48.5374145,9.83774508 C47.7693475,10.4450241 47.0162274,11.0849462 46.2780481,11.757532 C46.0739277,11.9435145 45.7576869,11.9288109 45.5717043,11.7246906 C45.3857218,11.5205703 45.4004254,11.2043294 45.6045458,11.0183469 C46.3598714,10.3301383 47.1307574,9.67512061 47.9171977,9.05331468 Z M101.350777,8.63924482 C101.512894,8.41569966 101.825536,8.36590293 102.049081,8.52802071 C102.868811,9.12249906 103.664631,9.74927998 104.436517,10.4083428 C104.646523,10.5876529 104.671407,10.9032559 104.492097,11.1132619 C104.312787,11.3232678 103.997184,11.3481517 103.787178,11.1688416 C103.035376,10.526928 102.260325,9.91650417 101.462001,9.33754934 C101.238455,9.17543156 101.188659,8.86278998 101.350777,8.63924482 Z M52.9104571,5.6706414 C53.1500911,5.53341835 53.4555941,5.61643882 53.5928171,5.85607281 C53.7300402,6.09570679 53.6470197,6.40120978 53.4073857,6.53843283 C52.5543044,7.02693787 51.7171173,7.54994419 50.8958052,8.10747195 C50.667331,8.26256605 50.3563875,8.20307979 50.2012934,7.97460565 C50.0461993,7.74613152 50.1056856,7.43518803 50.3341597,7.28009392 C51.1764721,6.70831067 52.0352443,6.17181977 52.9104571,5.6706414 Z M96.2002556,5.58221494 C96.3255705,5.33614428 96.6266381,5.23825244 96.8727087,5.36356741 C97.7802299,5.82573541 98.6643155,6.31976154 99.5249372,6.84563858 C99.7605716,6.98962137 99.8348699,7.29736191 99.6908871,7.5329963 C99.5469043,7.76863069 99.2391638,7.84292899 99.0035294,7.6989462 C98.1650002,7.18656865 97.3034675,6.70514502 96.4189031,6.2546681 C96.1728324,6.12935314 96.0749406,5.8282856 96.2002556,5.58221494 Z M58.4423585,3.05566583 C58.700506,2.95761243 58.9892639,3.08739435 59.0873173,3.34554187 C59.1853707,3.60368939 59.0555888,3.89244729 58.7974413,3.99050069 C57.8729311,4.3416618 56.9646518,4.72777436 56.0725754,5.1488482 C55.8228541,5.26672052 55.5248606,5.1598358 55.4069883,4.9101145 C55.289116,4.6603932 55.3960007,4.36239969 55.645722,4.24452738 C56.5613306,3.81234593 57.4935521,3.41605546 58.4423585,3.05566583 Z M90.5932811,3.31420979 C90.6813372,3.05248333 90.9648919,2.91169568 91.2266184,2.99975176 C92.1956529,3.32577679 93.1427564,3.68174244 94.0679074,4.06765393 C94.3227658,4.17396391 94.4431881,4.46674872 94.3368781,4.72160711 C94.2305681,4.9764655 93.9377833,5.09688779 93.6829249,4.99057781 C92.779619,4.61377863 91.8545643,4.26609998 90.9077391,3.9475471 C90.6460127,3.85949101 90.505225,3.57593624 90.5932811,3.31420979 Z M85.3281059,1.44618501 L85.4178092,1.45597517 C86.4216564,1.65748174 87.4056128,1.88618977 88.3696666,2.1421094 C88.6365649,2.21296075 88.7954923,2.48676093 88.724641,2.75365922 C88.6537896,3.02055751 88.3799894,3.17948496 88.1130911,3.10863361 C87.1689457,2.8579989 86.2049195,2.63392337 85.2210008,2.43641715 C84.9502593,2.38207003 84.7748369,2.11853357 84.829184,1.847792 C84.8835311,1.57705042 85.1470676,1.40162805 85.4178092,1.45597517 Z M64.2643663,1.33914326 C64.5343218,1.28101699 64.8002846,1.45273847 64.8584108,1.72269393 C64.9165371,1.99264938 64.7448156,2.25861217 64.4748602,2.31673844 C63.5016243,2.52629367 62.5442086,2.76967979 61.6025879,3.04689342 C61.3376867,3.12488046 61.0597209,2.97335662 60.9817338,2.70845544 C60.9037468,2.44355427 61.0552706,2.16558845 61.3201718,2.08760141 C62.2856148,1.80337449 63.2670215,1.55388958 64.2643663,1.33914326 Z M79.4015915,0.594777396 C80.4212392,0.686189636 81.4231803,0.801812234 82.4074107,0.941654738 C82.6808072,0.980499768 82.8709488,1.23362158 82.8321038,1.50701813 C82.7932587,1.78041469 82.5401369,1.97055626 82.2667404,1.93171124 C81.2997106,1.79431264 80.3148981,1.68066666 79.3122988,1.59078283 C79.0372595,1.56612533 78.834285,1.32317307 78.8589425,1.04813377 C78.8836,0.773094461 79.1265522,0.570119901 79.4015915,0.594777396 Z M70.2929409,0.478194244 C70.5683187,0.45765907 70.8082035,0.664249816 70.8287387,0.939627589 C70.8492739,1.21500536 70.6426831,1.4548902 70.3673054,1.47542538 C69.3692138,1.54985398 68.3858913,1.65573868 67.4173225,1.79306868 C67.1439146,1.83183422 66.8908481,1.64161906 66.8520826,1.36821122 C66.813317,1.09480339 67.0035322,0.841736867 67.27694,0.802971324 C68.2675545,0.662515562 69.2728932,0.554260138 70.2929409,0.478194244 Z M73.323282,0.347431385 C74.0611688,0.338137452 74.8057146,0.344780419 75.5618795,0.367426157 L75.5618795,0.367426157 L76.3535696,0.3958027 C76.6294721,0.407311701 76.8438053,0.640304705 76.8322963,0.916207141 C76.8207873,1.19210958 76.5877943,1.4064428 76.3118918,1.3949338 L76.3118918,1.3949338 L75.5319085,1.36697692 C74.7898698,1.34475424 74.0595016,1.33823777 73.3358764,1.34735207 C73.0597559,1.3508299 72.8330967,1.12980937 72.8296189,0.853688897 C72.826141,0.577568424 73.0471616,0.350909215 73.323282,0.347431385 Z" fill="#ABB2C2" fill-rule="nonzero"></path>
                    </g>
                </g>
            </g>
        </g>
    </g>
</svg>