<svg xmlns="http://www.w3.org/2000/svg" width="118" height="80" viewBox="0 0 118 80">
  <g id="Empty_state" data-name="Empty state" transform="translate(-116 -257)">
    <g id="Rectangle_54" data-name="Rectangle 54" transform="translate(116 257)" fill="none" stroke="#b3b3be" stroke-width="1">
      <path d="M4,0H110a0,0,0,0,1,0,0V80a0,0,0,0,1,0,0H4a4,4,0,0,1-4-4V4A4,4,0,0,1,4,0Z" stroke="none"/>
      <path d="M4,.5H109a.5.5,0,0,1,.5.5V79a.5.5,0,0,1-.5.5H4A3.5,3.5,0,0,1,.5,76V4A3.5,3.5,0,0,1,4,.5Z" fill="none"/>
    </g>
    <line id="Line_11" data-name="Line 11" x1="8" transform="translate(226 257.5)" fill="none" stroke="#b3b3be" stroke-width="1"/>
    <line id="Line_12" data-name="Line 12" x1="8" transform="translate(226 336.5)" fill="none" stroke="#b3b3be" stroke-width="1"/>
    <line id="Line_9" data-name="Line 9" x2="109" transform="translate(116.5 269)" fill="none" stroke="#b3b3be" stroke-width="1"/>
    <path id="Logo" d="M38.8,17.926a5.3,5.3,0,0,1,1.311-3.612,4.988,4.988,0,0,1,7.083,0,5.293,5.293,0,0,1,1.312,3.612,4.858,4.858,0,1,1-9.706,0Zm1.825,0a3.043,3.043,0,1,0,6.056,0c0-2.01-1.217-3.359-3.028-3.359S40.626,15.916,40.626,17.926Zm10.927,4.827H49.771V13.073h3.981c2.216,0,3.208,1.417,3.208,2.821a2.746,2.746,0,0,1-1.922,2.682l2.625,4.173-2.06,0-2.418-3.858H51.555v3.858h0Zm0-5.5H53.7a1.319,1.319,0,0,0,1.466-1.313c0-.276-.1-1.175-1.327-1.175H51.555Zm12.78,5.5-3.014-4.3L60.312,19.5v3.25h-1.8V13.073h1.8V17.29L64.1,13.073h2.406l-3.857,4,4.009,5.683Zm-30.1,0L32.1,15.686l-2.13,7.066H28.191L25.55,13.073h1.908l1.7,6.9,2.087-6.9h1.77L35.1,19.986l1.7-6.913h1.839L36,22.752Zm-14.021,0V14.76H17.073V13.073h8.1V14.76h-3.18v7.991Zm-10.482,0V13.073h6.5V14.76h-4.7v2.253h4.327V18.7H11.526v2.364H16.49v1.687Zm-3.175,0-4.3-6.83v6.83H.484V13.073H2.558l4.148,6.65v-6.65h1.77v9.678Zm15.607-17.6C22.161,2.5,23.668.014,26.9.014c2.28,0,3.968,1.231,4.217,3.443H29.281A2.195,2.195,0,0,0,26.848,1.7c-1.964,0-2.89,1.534-2.89,3.4,0,1.991,1.051,3.374,2.931,3.374a2.278,2.278,0,0,0,2.5-2.075h-2.78V4.729H31.12V9.913H29.447V8.807a3.112,3.112,0,0,1-2.835,1.355C23.9,10.161,22.161,8.005,22.161,5.157ZM0,5.088A5.288,5.288,0,0,1,1.312,1.477,4.662,4.662,0,0,1,4.853,0,4.662,4.662,0,0,1,8.394,1.477,5.288,5.288,0,0,1,9.706,5.088a4.752,4.752,0,0,1-4.853,5.074A4.752,4.752,0,0,1,0,5.088Zm1.825,0a3.043,3.043,0,1,0,6.056,0c0-2.009-1.217-3.359-3.028-3.359S1.825,3.079,1.825,5.088ZM19.21,9.913V3.1L16.721,9.913H15.1L12.616,3.1V9.913H10.97V.235h2.282l2.682,7.4,2.682-7.4H20.9V9.913Z" transform="translate(140 291)" fill="#b3b3be"/>
  </g>
</svg>
