<svg width="17" height="16" viewBox="0 0 17 16" fill="none" xmlns="http://www.w3.org/2000/svg">
<path d="M7.93707 6.90867L14.6888 0.154473C14.8298 0.044763 15.006 -0.00966819 15.1843 0.00141171C15.3626 0.0124916 15.5307 0.0883197 15.6571 0.21464C15.7834 0.340961 15.8592 0.509073 15.8703 0.687374C15.8814 0.865674 15.8269 1.04188 15.7172 1.18287L8.96424 7.93707L15.7184 14.6888C15.8004 14.7526 15.8679 14.8331 15.9164 14.925C15.9649 15.0169 15.9934 15.118 15.9998 15.2217C16.0063 15.3254 15.9906 15.4293 15.9538 15.5265C15.9171 15.6236 15.86 15.7119 15.7866 15.7854C15.7131 15.8588 15.6249 15.9158 15.5277 15.9526C15.4305 15.9894 15.3266 16.005 15.2229 15.9986C15.1192 15.9921 15.0181 15.9637 14.9262 15.9152C14.8344 15.8667 14.7538 15.7992 14.69 15.7172L7.93707 8.96424L1.18287 15.7172C1.04188 15.8269 0.865674 15.8814 0.687374 15.8703C0.509073 15.8592 0.340961 15.7834 0.21464 15.6571C0.0883197 15.5307 0.0124916 15.3626 0.00141171 15.1843C-0.00966819 15.006 0.044763 14.8298 0.154473 14.6888L6.90867 7.93707L0.155694 1.18287C0.0479866 1.0418 -0.00486413 0.866437 0.006957 0.689346C0.0187781 0.512254 0.0944679 0.345471 0.219969 0.219969C0.345471 0.0944679 0.512254 0.0187781 0.689346 0.006957C0.866437 -0.00486413 1.0418 0.0479866 1.18287 0.155694L7.93707 6.90867Z" fill="white"/>
</svg>
