<svg width="12" height="14" viewBox="0 0 12 14" fill="none" xmlns="http://www.w3.org/2000/svg">
<path d="M10 9.72004C9.49333 9.72004 9.04 9.92004 8.69333 10.2334L3.94 7.46671C3.97333 7.31337 4 7.16004 4 7.00004C4 6.84004 3.97333 6.68671 3.94 6.53337L8.64 3.79337C9 4.12671 9.47333 4.33337 10 4.33337C11.1067 4.33337 12 3.44004 12 2.33337C12 1.22671 11.1067 0.333374 10 0.333374C8.89333 0.333374 8 1.22671 8 2.33337C8 2.49337 8.02667 2.64671 8.06 2.80004L3.36 5.54004C3 5.20671 2.52667 5.00004 2 5.00004C0.893333 5.00004 0 5.89337 0 7.00004C0 8.10671 0.893333 9.00004 2 9.00004C2.52667 9.00004 3 8.79337 3.36 8.46004L8.10667 11.2334C8.07333 11.3734 8.05333 11.52 8.05333 11.6667C8.05333 12.74 8.92667 13.6134 10 13.6134C11.0733 13.6134 11.9467 12.74 11.9467 11.6667C11.9467 10.5934 11.0733 9.72004 10 9.72004Z" fill="white"/>
</svg>
