<?xml version="1.0" encoding="UTF-8"?>
<svg width="40px" height="40px" viewBox="0 0 40 40" version="1.1" xmlns="http://www.w3.org/2000/svg" xmlns:xlink="http://www.w3.org/1999/xlink">
    <!-- Generator: Sketch 59.1 (86144) - https://sketch.com -->
    <title>Combined Shape</title>
    <desc>Created with Sketch.</desc>
    <g id="Hi-Res-_Change-color" stroke="none" stroke-width="1" fill="none" fill-rule="evenodd">
        <g id="Transfer_Send_Default_Childchain" transform="translate(-73.000000, -214.000000)" fill="#FFFFFF" fill-rule="nonzero">
            <g id="Group-5" transform="translate(73.000000, 208.000000)">
                <path d="M9.68060458,26.6261499 C15.0207871,26.6261499 19.3498605,30.9552232 19.3498605,36.2954058 C19.3498605,41.6355883 15.0207871,45.9646617 9.68060458,45.9646617 C4.34042201,45.9646617 0.0113486915,41.6355883 0.0113486915,36.2954058 C0.0113486915,30.9552232 4.34042201,26.6261499 9.68060458,26.6261499 Z M9.68060458,29.5578893 C5.95768396,29.5578893 2.9396605,32.5759128 2.9396605,36.2988334 C2.9396605,40.021754 5.95768396,43.0397774 9.68060458,43.0397774 C13.4009168,43.0334878 16.415259,40.0191456 16.4215487,36.2988334 C16.4215487,32.5759128 13.4035252,29.5578893 9.68060458,29.5578893 Z M19.3475754,6.00000177 L19.3475754,8.92488775 L16.6054965,8.92488775 C19.8171967,12.2230883 20.2597165,17.327716 17.6635051,21.129404 C15.0672936,24.931092 10.1516407,26.3765689 5.91080341,24.5853557 C1.66996616,22.7941424 -0.721116149,18.2625011 0.194029418,13.7507771 C1.10917499,9.23905301 5.07700406,5.99723559 9.68060458,6.00000177 L9.68060458,6.00000177 L19.3475754,6.00000177 Z M30.3307441,6.00000354 C35.6709267,6.00000354 40,10.3290769 40,15.6692594 C40,21.009442 35.6709267,25.3385153 30.3307441,25.3385153 C24.9905615,25.3385153 20.6614882,21.009442 20.6614882,15.6692594 C20.6614882,10.3290769 24.9905615,6.00000354 30.3307441,6.00000354 Z M30.3307441,8.93174295 C26.6078235,8.93174295 23.5898,11.9497664 23.5898,15.672687 C23.5898,19.3956076 26.6078235,22.4136311 30.3307441,22.4136311 C34.0510564,22.4073415 37.0653986,19.3929993 37.0716882,15.672687 C37.0716882,11.9497664 34.0536647,8.93174295 30.3307441,8.93174295 Z M9.68060458,8.92831535 C5.95768396,8.92831535 2.9396605,11.9463388 2.9396605,15.6692594 C2.9396605,19.39218 5.95768396,22.4102035 9.68060458,22.4102035 C13.4035252,22.4102035 16.4215487,19.39218 16.4215487,15.6692594 L16.4215487,15.6692594 C16.4186816,11.9476114 13.4022553,8.93271808 9.68060458,8.92831535 Z" id="Combined-Shape"></path>
            </g>
        </g>
    </g>
</svg>