<svg xmlns="http://www.w3.org/2000/svg" width="57.963" height="20" viewBox="0 0 57.963 20"><defs><style>.a{fill:#b4b4be;}</style></defs><path class="a" d="M34.88,18.723a4.584,4.584,0,0,1-1.14-3.135,4.6,4.6,0,0,1,1.14-3.141,4.336,4.336,0,0,1,6.159,0,4.6,4.6,0,0,1,1.14,3.141,4.584,4.584,0,0,1-1.14,3.135,4.351,4.351,0,0,1-6.159,0Zm.446-3.135a2.646,2.646,0,1,0,5.266,0,2.647,2.647,0,1,0-5.266,0Zm9.5,4.2h-1.55V11.368h3.462A2.487,2.487,0,0,1,49.53,13.82a2.388,2.388,0,0,1-1.671,2.333l2.283,3.629-1.79,0-2.1-3.354H44.829v3.354h0Zm0-4.786h1.864a1.145,1.145,0,0,0,1.274-1.142c0-.239-.083-1.022-1.155-1.022H44.829Zm11.114,4.785-2.621-3.74-.877.914v2.825H50.882V11.368h1.563v3.667l3.294-3.667H57.83l-3.353,3.475,3.486,4.941Zm-26.176,0L27.916,13.64l-1.852,6.143H24.513l-2.3-8.416h1.659l1.479,6,1.815-6h1.539l1.815,6.011L32,11.368h1.6l-2.3,8.416Zm-12.192,0V12.835h-2.73V11.368h7.045v1.467H19.126v6.949Zm-9.115,0V11.368h5.651v1.467H10.023v1.959h3.763v1.467H10.023v2.056h4.316v1.467Zm-2.761,0-3.74-5.939v5.939H.421V11.368h1.8L5.831,17.15V11.368H7.37v8.416ZM19.27,4.485c0-2.309,1.31-4.473,4.124-4.473A3.352,3.352,0,0,1,27.06,3.006h-1.6a1.908,1.908,0,0,0-2.116-1.527c-1.707,0-2.513,1.335-2.513,2.957,0,1.732.913,2.934,2.549,2.934a1.982,1.982,0,0,0,2.176-1.8H23.142V4.111H27.06V8.62H25.606V7.658a2.7,2.7,0,0,1-2.464,1.178C20.785,8.836,19.27,6.961,19.27,4.485ZM1.141,7.559A4.581,4.581,0,0,1,0,4.424,4.6,4.6,0,0,1,1.141,1.283,4.055,4.055,0,0,1,4.22,0,4.055,4.055,0,0,1,7.3,1.283a4.6,4.6,0,0,1,1.14,3.141A4.584,4.584,0,0,1,7.3,7.559,4.063,4.063,0,0,1,4.22,8.836,4.063,4.063,0,0,1,1.141,7.559Zm.446-3.135a2.646,2.646,0,1,0,5.266,0,2.647,2.647,0,1,0-5.266,0ZM16.7,8.62V2.693L14.54,8.62H13.134L10.969,2.693V8.62H9.539V.2h1.984l2.332,6.432L16.187.2h1.984V8.62Z" transform="translate(0)"/></svg>
