<svg width="16" height="16" viewBox="0 0 16 16" fill="none" xmlns="http://www.w3.org/2000/svg">
<path d="M13.568 10.182C13.3751 10.182 13.19 10.1054 13.0536 9.96892C12.9171 9.83249 12.8405 9.64745 12.8405 9.4545C12.8405 9.26155 12.9171 9.07651 13.0536 8.94008C13.19 8.80365 13.3751 8.727 13.568 8.727H14.4C14.8243 8.727 15.2313 8.89557 15.5314 9.19563C15.8314 9.49569 16 9.90265 16 10.327V12C16 12.1929 15.9234 12.378 15.7869 12.5144C15.6505 12.6509 15.4654 12.7275 15.2725 12.7275C15.0796 12.7275 14.8945 12.6509 14.7581 12.5144C14.6216 12.378 14.545 12.1929 14.545 12V10.327C14.545 10.2885 14.5297 10.2517 14.5025 10.2245C14.4753 10.1973 14.4385 10.182 14.4 10.182H13.568ZM14.545 14.4C14.545 14.2071 14.6216 14.022 14.7581 13.8856C14.8945 13.7491 15.0796 13.6725 15.2725 13.6725C15.4654 13.6725 15.6505 13.7491 15.7869 13.8856C15.9234 14.022 16 14.2071 16 14.4V15.273C16 15.4659 15.9234 15.651 15.7869 15.7874C15.6505 15.9239 15.4654 16.0005 15.2725 16.0005C15.0796 16.0005 14.8945 15.9239 14.7581 15.7874C14.6216 15.651 14.545 15.4659 14.545 15.273V14.4ZM12.957 14.545C13.1499 14.545 13.335 14.6216 13.4714 14.7581C13.6079 14.8945 13.6845 15.0796 13.6845 15.2725C13.6845 15.4654 13.6079 15.6505 13.4714 15.7869C13.335 15.9234 13.1499 16 12.957 16H10.327C9.90265 16 9.49569 15.8314 9.19563 15.5314C8.89557 15.2313 8.727 14.8243 8.727 14.4V14.022C8.727 13.8291 8.80365 13.644 8.94008 13.5076C9.07651 13.3711 9.26155 13.2945 9.4545 13.2945C9.64745 13.2945 9.83249 13.3711 9.96892 13.5076C10.1054 13.644 10.182 13.8291 10.182 14.022V14.4C10.182 14.4385 10.1973 14.4753 10.2245 14.5025C10.2517 14.5297 10.2885 14.545 10.327 14.545H12.957ZM10.182 12C10.182 12.1929 10.1054 12.378 9.96892 12.5144C9.83249 12.6509 9.64745 12.7275 9.4545 12.7275C9.26155 12.7275 9.07651 12.6509 8.94008 12.5144C8.80365 12.378 8.727 12.1929 8.727 12V10.327C8.727 9.90265 8.89557 9.49569 9.19563 9.19563C9.49569 8.89557 9.90265 8.727 10.327 8.727H11.146C11.3389 8.727 11.524 8.80365 11.6604 8.94008C11.7969 9.07651 11.8735 9.26155 11.8735 9.4545C11.8735 9.64745 11.7969 9.83249 11.6604 9.96892C11.524 10.1054 11.3389 10.182 11.146 10.182H10.327C10.2885 10.182 10.2517 10.1973 10.2245 10.2245C10.1973 10.2517 10.182 10.2885 10.182 10.327V12ZM12.073 11.636H12.8C12.9929 11.636 13.178 11.7126 13.3144 11.8491C13.4509 11.9855 13.5275 12.1706 13.5275 12.3635C13.5275 12.5564 13.4509 12.7415 13.3144 12.8779C13.178 13.0144 12.9929 13.091 12.8 13.091H12.073C11.8801 13.091 11.695 13.0144 11.5586 12.8779C11.4221 12.7415 11.3455 12.5564 11.3455 12.3635C11.3455 12.1706 11.4221 11.9855 11.5586 11.8491C11.695 11.7126 11.8801 11.636 12.073 11.636ZM1.6 8.727H5.673C6.09735 8.727 6.50431 8.89557 6.80437 9.19563C7.10443 9.49569 7.273 9.90265 7.273 10.327V14.4C7.273 14.8243 7.10443 15.2313 6.80437 15.5314C6.50431 15.8314 6.09735 16 5.673 16H1.6C1.17565 16 0.768687 15.8314 0.468629 15.5314C0.168571 15.2313 0 14.8243 0 14.4V10.327C0 9.90265 0.168571 9.49569 0.468629 9.19563C0.768687 8.89557 1.17565 8.727 1.6 8.727ZM1.6 10.182C1.56154 10.182 1.52466 10.1973 1.49747 10.2245C1.47028 10.2517 1.455 10.2885 1.455 10.327V14.4C1.455 14.4385 1.47028 14.4753 1.49747 14.5025C1.52466 14.5297 1.56154 14.545 1.6 14.545H5.673C5.71146 14.545 5.74834 14.5297 5.77553 14.5025C5.80272 14.4753 5.818 14.4385 5.818 14.4V10.327C5.818 10.2885 5.80272 10.2517 5.77553 10.2245C5.74834 10.1973 5.71146 10.182 5.673 10.182H1.6ZM3.345 11.637H4.072C4.26495 11.637 4.44999 11.7136 4.58642 11.8501C4.72285 11.9865 4.7995 12.1716 4.7995 12.3645C4.7995 12.5574 4.72285 12.7425 4.58642 12.8789C4.44999 13.0154 4.26495 13.092 4.072 13.092H3.345C3.15205 13.092 2.96701 13.0154 2.83058 12.8789C2.69415 12.7425 2.6175 12.5574 2.6175 12.3645C2.6175 12.1716 2.69415 11.9865 2.83058 11.8501C2.96701 11.7136 3.15205 11.637 3.345 11.637ZM10.327 0H14.4C14.8243 0 15.2313 0.168571 15.5314 0.468629C15.8314 0.768687 16 1.17565 16 1.6V5.673C16 6.09735 15.8314 6.50431 15.5314 6.80437C15.2313 7.10443 14.8243 7.273 14.4 7.273H10.327C9.90265 7.273 9.49569 7.10443 9.19563 6.80437C8.89557 6.50431 8.727 6.09735 8.727 5.673V1.6C8.727 1.17565 8.89557 0.768687 9.19563 0.468629C9.49569 0.168571 9.90265 0 10.327 0ZM10.327 1.455C10.2885 1.455 10.2517 1.47028 10.2245 1.49747C10.1973 1.52466 10.182 1.56154 10.182 1.6V5.673C10.182 5.71146 10.1973 5.74834 10.2245 5.77553C10.2517 5.80272 10.2885 5.818 10.327 5.818H14.4C14.4385 5.818 14.4753 5.80272 14.5025 5.77553C14.5297 5.74834 14.545 5.71146 14.545 5.673V1.6C14.545 1.56154 14.5297 1.52466 14.5025 1.49747C14.4753 1.47028 14.4385 1.455 14.4 1.455H10.327ZM12.072 2.91H12.8C12.9929 2.91 13.178 2.98665 13.3144 3.12308C13.4509 3.25951 13.5275 3.44455 13.5275 3.6375C13.5275 3.83044 13.4509 4.01549 13.3144 4.15192C13.178 4.28835 12.9929 4.365 12.8 4.365H12.073C11.8801 4.365 11.695 4.28835 11.5586 4.15192C11.4221 4.01549 11.3455 3.83044 11.3455 3.6375C11.3455 3.44455 11.4221 3.25951 11.5586 3.12308C11.695 2.98665 11.8801 2.91 12.073 2.91H12.072ZM1.6 0H5.673C6.09735 0 6.50431 0.168571 6.80437 0.468629C7.10443 0.768687 7.273 1.17565 7.273 1.6V5.673C7.273 6.09735 7.10443 6.50431 6.80437 6.80437C6.50431 7.10443 6.09735 7.273 5.673 7.273H1.6C1.17565 7.273 0.768687 7.10443 0.468629 6.80437C0.168571 6.50431 0 6.09735 0 5.673V1.6C0 1.17565 0.168571 0.768687 0.468629 0.468629C0.768687 0.168571 1.17565 0 1.6 0ZM1.6 1.455C1.56154 1.455 1.52466 1.47028 1.49747 1.49747C1.47028 1.52466 1.455 1.56154 1.455 1.6V5.673C1.455 5.71146 1.47028 5.74834 1.49747 5.77553C1.52466 5.80272 1.56154 5.818 1.6 5.818H5.673C5.71146 5.818 5.74834 5.80272 5.77553 5.77553C5.80272 5.74834 5.818 5.71146 5.818 5.673V1.6C5.818 1.56154 5.80272 1.52466 5.77553 1.49747C5.74834 1.47028 5.71146 1.455 5.673 1.455H1.6ZM3.345 2.909H4.072C4.26495 2.909 4.44999 2.98565 4.58642 3.12208C4.72285 3.25851 4.7995 3.44355 4.7995 3.6365C4.7995 3.82944 4.72285 4.01449 4.58642 4.15092C4.44999 4.28735 4.26495 4.364 4.072 4.364H3.345C3.15205 4.364 2.96701 4.28735 2.83058 4.15092C2.69415 4.01449 2.6175 3.82944 2.6175 3.6365C2.6175 3.44355 2.69415 3.25851 2.83058 3.12208C2.96701 2.98565 3.15205 2.909 3.345 2.909Z" fill="white"/>
</svg>
