<?xml version="1.0" encoding="UTF-8"?>
<svg xmlns="http://www.w3.org/2000/svg" width="90" height="68" viewBox="0 0 90 68"><defs><style>.a,.b,.e{fill:none;}.b{stroke:#acbafe;stroke-width:4px;}.c{fill:#4967ff;}.d{fill:#101010;}.e{stroke:#101010;stroke-linecap:round;stroke-width:3px;}.f{stroke:none;}</style></defs><g transform="translate(-44 -137)"><rect class="a" width="90" height="68" transform="translate(44 137)"/><g class="b" transform="translate(75 137)"><path class="f" d="M12,0h4A12,12,0,0,1,28,12V29a0,0,0,0,1,0,0H0a0,0,0,0,1,0,0V12A12,12,0,0,1,12,0Z"/><path class="a" d="M12,2h4A10,10,0,0,1,26,12V25a2,2,0,0,1-2,2H4a2,2,0,0,1-2-2V12A10,10,0,0,1,12,2Z"/></g><rect class="c" width="50" height="44" transform="translate(64 161)"/><g transform="translate(0 -1)"><circle class="d" cx="3.5" cy="3.5" r="3.5" transform="translate(86 178)"/><line class="e" y2="5" transform="translate(89.5 184.5)"/></g></g></svg>
