<?xml version="1.0" encoding="UTF-8"?>
<svg width="51px" height="55px" viewBox="0 0 51 55" version="1.1" xmlns="http://www.w3.org/2000/svg" xmlns:xlink="http://www.w3.org/1999/xlink">
    <title>Group 13</title>
    <desc>Created with Sketch.</desc>
    <g id="Onboard_ONOV-2019" stroke="none" stroke-width="1" fill="none" fill-rule="evenodd">
        <g id="New-wallet_2" transform="translate(-233.000000, -732.000000)">
            <g id="OB2" transform="translate(0.000000, 507.000000)">
                <g id="Group-12" transform="translate(92.000000, 230.000000)">
                    <g id="Group-13" transform="translate(133.000000, 0.000000)">
                        <path d="M17.7169995,40.9445119 L11.7363939,33.3006078 C10.8062529,32.1117802 10.9226295,30.4128114 12.0061879,29.361919 C13.0395703,28.3596898 14.6897595,28.3849446 15.6919886,29.418327 C15.7030085,29.4296894 15.7139246,29.4411519 15.7247357,29.4527132 L18.3421843,32.2517947 C18.7194011,32.6551878 19.3522104,32.6764078 19.7556034,32.299191 C20.0034757,32.0674032 20.1168795,31.7257227 20.056792,31.391723 L16.3638192,10.8641156 C16.0672781,9.21577444 17.1621767,7.63883296 18.8102223,7.34065299 C20.4690765,7.0405174 22.0642603,8.11919952 22.4035349,9.7704934 L25.7198651,25.9115072 L25.7198651,25.9115072 L24.4326209,18.6921659 C24.135331,17.0248547 25.2459528,15.4322309 26.913264,15.1349411 C26.9686502,15.1250655 27.0242976,15.1167159 27.0801432,15.1099019 C28.9021698,14.8875865 30.5934282,16.0903044 30.9815509,17.8843406 L32.5337406,25.0590937 L32.5337406,25.0590937 L31.5661721,19.7573471 C31.2557808,18.0565724 32.3725535,16.4229554 34.0699838,16.094767 C35.7606359,15.7678892 37.3961671,16.8734466 37.723045,18.5640988 C37.7232329,18.5650709 37.7234204,18.5660431 37.7236075,18.5670154 L38.7556799,23.9324405 L38.7556799,23.9324405 L38.224083,21.1400843 C37.9350841,19.6220401 38.9314222,18.1571423 40.4494664,17.8681435 C40.5159254,17.8554913 40.5828214,17.8452536 40.6500225,17.8374506 C42.3297112,17.6424149 43.871393,18.787433 44.1700756,20.4518193 L44.8696607,24.3502047 C45.6843552,28.8900282 45.7176251,33.5356556 44.9680352,38.0866819 L44.8696607,38.6839488 C44.1383063,43.1242613 40.5912065,46.5652214 36.1307308,47.1613843 L33.751249,47.4794128 C27.625887,48.2980953 21.5250558,45.8116473 17.7169995,40.9445119 Z" id="Path-7" stroke="#FFFFFF" stroke-width="2" fill="#1A56F0" stroke-linejoin="round" transform="translate(28.100682, 27.800908) rotate(53.000000) translate(-28.100682, -27.800908) "></path>
                        <path d="M57.5285422,39.5 C55.8238193,29.3951508 52.3143052,21.8951508 47,17" id="Path-2" stroke="#FFFFFF" stroke-linecap="round" stroke-dasharray="2,3"></path>
                        <path id="Path-8" d="M17.5798588,-4.42050575 C17.8293513,-4.53886162 18.1275513,-4.4325544 18.2459072,-4.18306192 C18.364263,-3.93356943 18.2579558,-3.63536942 18.0084633,-3.51701355 L18.0084633,-3.51701355 L10.5186115,0.0360713029 L17.4444646,4.5918205 C17.6751699,4.74357587 17.7391715,5.05362147 17.5874161,5.28432674 C17.4356607,5.51503201 17.1256151,5.57903355 16.8949099,5.42727819 L16.8949099,5.42727819 L8.48379861,-0.105457283 Z M26.122396,2.39216785 C26.2019777,2.12774138 26.4808515,1.97789513 26.745278,2.05747688 C27.3843376,2.24980816 28.024436,2.45298195 28.6655728,2.66699657 C28.9275074,2.75443162 29.0689672,3.03765167 28.9815322,3.29958624 C28.8940971,3.56152082 28.6108771,3.70298063 28.3489425,3.61554558 C27.7172099,3.40467014 27.0865916,3.20450545 26.457087,3.01504982 C26.1926605,2.93546807 26.0428142,2.65659432 26.122396,2.39216785 Z M21.7763329,0.784230499 L21.8658832,0.79533333 C22.519298,0.936481518 23.1738219,1.08916108 23.8294534,1.25337019 C24.0973219,1.32046038 24.2600849,1.59199802 24.1929947,1.85986649 C24.1259045,2.12773496 23.8543668,2.29049792 23.5864984,2.22340774 C22.9413995,2.06183663 22.2974795,1.91163062 21.6547372,1.77278786 C21.3848206,1.7144815 21.2132766,1.4484042 21.2715829,1.17848759 C21.3298893,0.908570973 21.5959666,0.737026969 21.8658832,0.79533333 Z M16.8504165,-0.0247366684 L17.5058123,0.0223747423 C17.9647678,0.0858233856 18.4242826,0.155050915 18.884356,0.230056767 C19.1569002,0.274489693 19.3418209,0.531450402 19.297388,0.803994575 C19.2529551,1.07653875 18.9959943,1.26145945 18.7234502,1.21702653 C18.5727458,1.19245717 18.4221066,1.16851937 18.2727726,1.14534216 L18.2727726,1.14534216 L17.4023521,1.01643849 L16.7804395,0.972811934 C16.504974,0.953488308 16.2973301,0.714514554 16.3166537,0.439049114 C16.3359773,0.163583673 16.5749511,-0.044060294 16.8504165,-0.0247366684 L16.8504165,-0.0247366684 Z M11.8621715,-0.371687211 L13.8573513,-0.232915251 C14.1328281,-0.213754842 14.3406137,0.0250958419 14.3214533,0.300572683 C14.3022929,0.576049524 14.0634422,0.783835047 13.7879653,0.764674637 L13.7879653,0.764674637 L11.7927856,0.625902677 C11.5173087,0.606742268 11.3095232,0.367891584 11.3286836,0.0924147432 C11.347844,-0.183062098 11.5866947,-0.39084762 11.8621715,-0.371687211 L11.8621715,-0.371687211 Z" fill="#FFFFFF" fill-rule="nonzero"></path>
                    </g>
                </g>
            </g>
        </g>
    </g>
</svg>
