<?xml version="1.0" encoding="UTF-8"?>
<svg width="152px" height="96px" viewBox="0 0 152 96" version="1.1" xmlns="http://www.w3.org/2000/svg" xmlns:xlink="http://www.w3.org/1999/xlink">
    <!-- Generator: Sketch 59.1 (86144) - https://sketch.com -->
    <title>CTA2</title>
    <desc>Created with Sketch.</desc>
    <g id="Onboard_ONOV-2019" stroke="none" stroke-width="1" fill="none" fill-rule="evenodd">
        <g id="When-have-some-fund-on-both-chain" transform="translate(-44.000000, -514.000000)">
            <g id="Tooltip" transform="translate(25.000000, 350.000000)">
                <g id="CTA2" transform="translate(20.000000, 164.000000)">
                    <path d="M74.566474,31.2138728 L145.349711,31.2138728 C147.55885,31.2138728 149.349711,33.0047338 149.349711,35.2138728 L149.349711,91.1589595 C149.349711,93.3680985 147.55885,95.1589595 145.349711,95.1589595 L74.566474,95.1589595 L74.566474,95.1589595 L74.566474,31.2138728 Z" id="Rectangle" stroke="#FFFFFF" fill="#FFFFFF"></path>
                    <g id="ETH" transform="translate(102.312139, 51.156069)" stroke="#1A56F0" stroke-linecap="round" stroke-linejoin="round" stroke-width="2.3">
                        <polygon id="Path-4" points="0 17.0860252 10.4046243 1.24344979e-14 20.8092486 17.0860252 10.4046243 33.6620197"></polygon>
                        <polyline id="Path-5" points="20.0088928 16.80747 10.4046243 22.5678077 0.800355714 16.80747"></polyline>
                        <polyline id="Path-6" points="10.4046243 8.84625706e-13 10.4046243 20.9670963 10.4046243 30.5076766"></polyline>
                    </g>
                    <path d="M4,31.2138728 L74.783237,31.2138728 L74.783237,31.2138728 L74.783237,95.1589595 L4,95.1589595 C1.790861,95.1589595 4.19476067e-15,93.3680985 0,91.1589595 L0,35.2138728 C-2.705415e-16,33.0047338 1.790861,31.2138728 4,31.2138728 Z" id="Rectangle-Copy" stroke="#FFFFFF"></path>
                    <path d="M28.8356169,66.5234877 C33.263261,66.5234877 36.8525758,70.1128025 36.8525758,74.5404466 C36.8525758,78.9680908 33.263261,82.5574055 28.8356169,82.5574055 C24.4079727,82.5574055 20.818658,78.9680908 20.818658,74.5404466 C20.818658,70.1128025 24.4079727,66.5234877 28.8356169,66.5234877 Z M28.8356169,68.9542471 C25.7488745,68.9542471 23.2465755,71.4565462 23.2465755,74.5432885 C23.2465755,77.6300308 25.7488745,80.1323299 28.8356169,80.1323299 C31.9201966,80.1271151 34.4194434,77.6278682 34.4246583,74.5432885 C34.4246583,71.4565462 31.9223592,68.9542471 28.8356169,68.9542471 Z M36.8506812,49.4219668 L36.8506812,51.8470439 L34.5771728,51.8470439 C37.2400529,54.5816429 37.6069543,58.8139842 35.4543873,61.966034 C33.3018204,65.1180838 29.2261616,66.3165555 25.710005,64.8314275 C22.1938484,63.3462995 20.2113578,59.5890318 20.9701219,55.848278 C21.7288861,52.1075241 25.0186865,49.4196733 28.8356169,49.4219668 L28.8356169,49.4219668 L36.8506812,49.4219668 Z M45.9570295,49.4219683 C50.3846737,49.4219683 53.9739884,53.011283 53.9739884,57.4389272 C53.9739884,61.8665713 50.3846737,65.4558861 45.9570295,65.4558861 C41.5293854,65.4558861 37.9400706,61.8665713 37.9400706,57.4389272 C37.9400706,53.011283 41.5293854,49.4219683 45.9570295,49.4219683 Z M45.9570295,51.8527276 C42.8702872,51.8527276 40.3679881,54.3550267 40.3679881,57.441769 C40.3679881,60.5285114 42.8702872,63.0308105 45.9570295,63.0308105 C49.0416092,63.0255956 51.5408561,60.5263487 51.546071,57.441769 C51.546071,54.3550267 49.0437719,51.8527276 45.9570295,51.8527276 Z M28.8356169,51.8498857 C25.7488745,51.8498857 23.2465755,54.3521848 23.2465755,57.4389272 C23.2465755,60.5256695 25.7488745,63.0279686 28.8356169,63.0279686 C31.9223592,63.0279686 34.4246583,60.5256695 34.4246583,57.4389272 L34.4246583,57.4389272 C34.4222812,54.35324 31.9213063,51.8535361 28.8356169,51.8498857 Z" id="Combined-Shape" fill="#FFFFFF" fill-rule="nonzero"></path>
                    <path d="M35.7052023,11.0057803 C42.169807,11.0057803 47.4104046,16.2463779 47.4104046,22.7109827 C47.4104046,29.1755874 42.169807,34.416185 35.7052023,34.416185 C29.2405976,34.416185 24,29.1755874 24,22.7109827 C24,16.2463779 29.2405976,11.0057803 35.7052023,11.0057803 Z" id="Combined-Shape" fill="#FFFFFF"></path>
                    <path d="M13.5049095,29.4797688 C19.2286941,29.4797688 23.9929309,33.5880808 25.0096927,39.0167774 L2.00012623,39.0167774 C3.01688801,33.5880808 7.7811249,29.4797688 13.5049095,29.4797688 Z" id="Combined-Shape" fill="#FFFFFF"></path>
                    <line x1="74.6748555" y1="39.3424855" x2="0.975433526" y2="39.3424855" id="Line-4-Copy" stroke="#FFFFFF"></line>
                    <path id="Path-2" d="M49.7317377,13.252978 L49.8219565,13.254736 C50.0964638,13.284742 50.2946713,13.5315988 50.2646653,13.806106 L50.2646653,13.806106 L49.3638761,22.0469113 L56.8742323,18.5373753 C57.1244078,18.4204701 57.4219855,18.528507 57.5388907,18.7786825 C57.6557959,19.028858 57.547759,19.3264357 57.2975835,19.4433409 L57.2975835,19.4433409 L48.9819246,23.3291892 C48.6286901,23.4942531 48.2308427,23.2094655 48.2732096,22.8218758 L48.2732096,22.8218758 L49.2705865,13.6974449 C49.3005924,13.4229376 49.5474492,13.2247301 49.8219565,13.254736 Z M51.4047169,18.3368528 C51.5654496,18.1123097 51.8777774,18.0605812 52.1023205,18.2213139 C52.3268635,18.3820467 52.3785921,18.6943744 52.2178593,18.9189175 L52.2178593,18.9189175 L50.4716651,21.3583449 C50.3109324,21.5828879 49.9986046,21.6346165 49.7740615,21.4738837 C49.5495184,21.313151 49.4977899,21.0008232 49.6585226,20.7762801 L49.6585226,20.7762801 Z M55.2039293,13.5947162 C55.3927849,13.3932511 55.7092023,13.383029 55.9106674,13.5718846 C56.1121325,13.7607401 56.1223546,14.0771576 55.933499,14.2786227 C55.2651832,14.9915608 54.6103615,15.7340605 53.9690371,16.5061358 C53.7925917,16.7185543 53.4773552,16.7477162 53.2649367,16.5712708 C53.0525182,16.3948254 53.0233562,16.0795889 53.1998017,15.8671704 C53.8538128,15.0798217 54.5218542,14.3223323 55.2039293,13.5947162 Z M59.6514682,9.43475247 C59.8656017,9.26039228 60.180538,9.29263487 60.3548982,9.50676832 C60.5292584,9.72090177 60.4970158,10.0358381 60.2828823,10.2101983 C59.5237397,10.8283374 58.7794275,11.4788796 58.0499409,12.1618452 C57.8483568,12.3505738 57.5319459,12.3401524 57.3432173,12.1385683 C57.1544887,11.9369843 57.1649101,11.6205733 57.3664942,11.4318448 C58.1127123,10.7332147 58.874372,10.0675104 59.6514682,9.43475247 Z M64.590036,5.97968064 C64.8275037,5.83874195 65.1342626,5.91699416 65.2752013,6.15446183 C65.41614,6.39192951 65.3378878,6.69868848 65.1004201,6.83962717 C64.2553965,7.34115447 63.4261978,7.87705822 62.6128062,8.4473591 C62.3867026,8.6058892 62.0748954,8.55111009 61.9163653,8.32500653 C61.7578352,8.09890297 61.8126143,7.78709579 62.0387179,7.62856569 C62.8727612,7.04378513 63.7232065,6.49414989 64.590036,5.97968064 Z M107.867937,5.31991703 C107.989489,5.07196609 108.289031,4.96949971 108.536982,5.09105194 C109.452017,5.53962704 110.34372,6.01993707 111.212063,6.53197628 C111.44993,6.67224022 111.529052,6.97877579 111.388789,7.21664264 C111.248525,7.45450949 110.941989,7.53363228 110.704122,7.39336834 C109.857951,6.89440313 108.988854,6.4262695 108.096802,5.9889617 C107.848851,5.86740946 107.746385,5.56786796 107.867937,5.31991703 Z M70.0836492,3.27662547 C70.3402365,3.17455901 70.6309829,3.29982291 70.7330493,3.55641022 C70.8351158,3.81299753 70.7098519,4.10374386 70.4532646,4.20581033 C69.5350013,4.57108124 68.632967,4.9713273 67.747134,5.40655967 C67.4992907,5.52833138 67.1996586,5.42613022 67.0778869,5.178287 C66.9561152,4.93044377 67.0583164,4.63081167 67.3061596,4.50903997 C68.2153651,4.0623241 69.1412042,3.65151554 70.0836492,3.27662547 Z M102.273686,3.14648827 C102.35844,2.88367416 102.640201,2.73932848 102.903015,2.82408316 C103.876343,3.13797076 104.827912,3.48157117 105.757702,3.8548904 C106.013961,3.95778039 106.13829,4.24892751 106.0354,4.50518571 C105.93251,4.7614439 105.641363,4.8857734 105.385105,4.78288341 C104.477037,4.41828581 103.547372,4.08259508 102.596091,3.77581723 C102.333277,3.69106255 102.188931,3.40930238 102.273686,3.14648827 Z M75.8782155,1.4719962 C76.1472899,1.40991881 76.4157414,1.57772301 76.4778188,1.84679737 C76.5398962,2.11587172 76.372092,2.38432325 76.1030176,2.44640064 C75.1337214,2.67002425 74.1803143,2.92764583 73.2427703,3.21926315 C72.9790888,3.30127964 72.6988453,3.1540111 72.6168288,2.89032965 C72.5348123,2.6266482 72.6820808,2.34640465 72.9457623,2.26438816 C73.9071999,1.9653389 74.884693,1.701209 75.8782155,1.4719962 Z M96.904043,1.32422806 L96.9938611,1.33290125 C98.0003067,1.52193268 98.9870888,1.73785606 99.9541967,1.98068164 C100.222026,2.04792929 100.384629,2.31956257 100.317381,2.58739155 C100.250134,2.85522054 99.9785004,3.01782384 99.7106714,2.9505762 C98.7632068,2.71268275 97.7960759,2.50105936 96.809268,2.31571628 C96.5378711,2.26474229 96.3591831,2.00340908 96.4101571,1.7320122 C96.461131,1.46061532 96.7224643,1.28192727 96.9938611,1.33290125 Z M81.8970984,0.527277101 C82.1721874,0.503180369 82.4147253,0.706649804 82.4388221,0.981738806 C82.4629188,1.25682781 82.2594494,1.49936577 81.9843604,1.5234625 C80.9878073,1.6107567 80.0061474,1.72977971 79.0393644,1.88052113 C78.7665187,1.9230634 78.5108463,1.73636559 78.468304,1.46351991 C78.4257617,1.19067423 78.6124595,0.935001778 78.8853052,0.892459508 C79.8743786,0.738242568 80.8783151,0.616518574 81.8970984,0.527277101 Z M91.0074825,0.54364558 C92.0279713,0.625045401 93.030964,0.730365645 94.0164572,0.859615651 C94.2902548,0.895524924 94.4831014,1.14659196 94.4471922,1.42038958 C94.4112829,1.6941872 94.1602159,1.88703381 93.8864182,1.85112453 C92.9178467,1.72409385 91.9316983,1.62054236 90.9279696,1.54047941 C90.6527015,1.51852251 90.4473522,1.27757407 90.4693091,1.00230601 C90.491266,0.727037947 90.7322145,0.521688679 91.0074825,0.54364558 Z M84.9257914,0.358713346 C85.8611229,0.335701723 86.8080367,0.338571846 87.768391,0.367332468 L87.768391,0.367332468 L87.9572098,0.373252877 C88.2332043,0.382288201 88.4496175,0.613350542 88.4405822,0.88934506 C88.4315469,1.16533958 88.2004845,1.38175276 87.92449,1.37271744 L87.92449,1.37271744 L86.8006047,1.34713151 C86.1782996,1.3396073 85.5617435,1.34336985 84.9503866,1.35841084 C84.6743278,1.36520261 84.4450321,1.14691853 84.4382403,0.870859691 C84.4314485,0.594800851 84.6497326,0.365505122 84.9257914,0.358713346 Z" fill="#FFFFFF" fill-rule="nonzero"></path>
                    <line x1="150.241329" y1="39.3424855" x2="73.5419075" y2="39.3424855" id="Line-4" stroke="#1A56F0"></line>
                </g>
            </g>
        </g>
    </g>
</svg>