<svg xmlns="http://www.w3.org/2000/svg" xmlns:xlink="http://www.w3.org/1999/xlink" width="144.613" height="143.184" viewBox="0 0 144.613 143.184">
  <defs>
    <clipPath id="clip-path">
      <path id="Path_3" data-name="Path 3" d="M19.8-24.738a.515.515,0,0,1,.177.177L38.964,7.1a.515.515,0,0,1,0,.536L19.974,38.359a.515.515,0,0,1-.876,0L.111,7.639a.515.515,0,0,1,0-.536L19.094-24.561A.515.515,0,0,1,19.8-24.738ZM7.66,12.907,17.716,29.181V19.032Zm23.751,0L21.351,19.032V29.181ZM17.716-15.166,4.588,6.728l13.128,8Zm3.635,0v29.9l13.13-8Z" transform="translate(-0.034 24.811)" fill="#fff"/>
    </clipPath>
    <clipPath id="clip-path-2">
      <path id="Path_2" data-name="Path 2" d="M-95,1365.568H870.472V-725H-95Z" transform="translate(95 725)" fill="#fff"/>
    </clipPath>
  </defs>
  <g id="Move_fund" data-name="Move fund" transform="translate(-22 -576.693)">
    <g id="Wallet" transform="translate(22 576.693)">
      <g id="ETH_icon" data-name="ETH icon" transform="translate(105.61 79.77)">
        <g id="Group_7" data-name="Group 7" clip-path="url(#clip-path)">
          <g id="Group_6" data-name="Group 6" transform="translate(-244.674 -1802.7)" clip-path="url(#clip-path-2)">
            <path id="Path_1" data-name="Path 1" d="M-4.966-29.811H59.783v89.16H-4.966Z" transform="translate(236.767 1819.638)" fill="#fff"/>
          </g>
        </g>
      </g>
      <path id="Logo" d="M51.8,22.572a6.48,6.48,0,1,1,12.958,0,6.157,6.157,0,0,1-6.479,6.389A6.156,6.156,0,0,1,51.8,22.572Zm2.437,0a4.046,4.046,0,1,0,8.085,0,4.047,4.047,0,1,0-8.085,0Zm14.589,6.077h-2.38V16.461h5.315c2.959,0,4.284,1.784,4.284,3.552a3.481,3.481,0,0,1-2.566,3.377l3.505,5.255-2.75,0L71.008,23.79H68.83v4.858h0Zm0-6.93h2.86a1.719,1.719,0,0,0,1.958-1.654c0-.348-.129-1.48-1.772-1.48H68.83Zm17.062,6.929-4.024-5.414-1.346,1.322v4.092h-2.4V16.461h2.4v5.31l5.057-5.31h3.212l-5.15,5.03,5.352,7.156Zm-40.189,0-2.842-8.9-2.843,8.9h-2.38L34.111,16.461h2.547l2.271,8.687,2.787-8.687h2.363l2.788,8.7,2.269-8.7h2.455L48.066,28.648Zm-18.719,0V18.585h-4.19V16.461H33.61v2.124H29.365V28.648Zm-13.995,0V16.461h8.676v2.124H15.389v2.837h5.778v2.124H15.389v2.977h6.627v2.124Zm-4.239,0-5.741-8.6v8.6H.646V16.461H3.415l5.538,8.374V16.461h2.363V28.648ZM29.586,6.493c0-3.342,2.013-6.476,6.332-6.476,3.045,0,5.3,1.549,5.63,4.335H39.093c-.149-1.376-1.532-2.211-3.249-2.211-2.622,0-3.858,1.932-3.858,4.282,0,2.507,1.4,4.249,3.914,4.249,1.753,0,3.118-.836,3.341-2.612H35.529V5.954h6.019v6.528H39.314V11.089a4.232,4.232,0,0,1-3.785,1.706C31.912,12.795,29.586,10.08,29.586,6.493ZM0,6.406A6.439,6.439,0,0,1,1.752,1.859,6.412,6.412,0,0,1,6.479,0a6.412,6.412,0,0,1,4.727,1.859,6.439,6.439,0,0,1,1.752,4.547,6.156,6.156,0,0,1-6.479,6.389A6.156,6.156,0,0,1,0,6.406Zm2.437,0A3.91,3.91,0,0,0,6.479,10.62a3.91,3.91,0,0,0,4.043-4.214,3.919,3.919,0,0,0-4.043-4.23A3.919,3.919,0,0,0,2.437,6.406Zm23.21,6.076V3.9l-3.322,8.582H20.165L16.843,3.9v8.582h-2.2V.3h3.046l3.58,9.314L24.853.3H27.9V12.482Z" transform="translate(0 112.35)" fill="#acbafe"/>
      <path id="Path_58" data-name="Path 58" stroke="#acbafe" d="M72.208,670.476s-7.1,10.368-9.737,29.415-1.943,15.686-1.723,24.976" fill="none" transform="translate(-43.306 -624.536)" stroke-linecap="round" stroke-linejoin="round" stroke-width="1" stroke-dasharray="2"/>
      <path id="Path_57" data-name="Path 57" d="M127.693,709.951s-4.833-40.89-18.1-51.076" transform="translate(-2.906 -641.495)" fill="none" stroke="#fff" stroke-linecap="round" stroke-width="1" stroke-dasharray="2"/>
      <path id="Path_59" data-name="Path 59" d="M0,0,4.112,4.81,8.483.831" transform="matrix(0.998, -0.07, 0.07, 0.998, 13.361, 95.292)" fill="none" stroke="#acbafe" stroke-linecap="round" stroke-linejoin="round" stroke-width="1"/>
      <g id="Ellipse_9" data-name="Ellipse 9" transform="translate(25.573 14.72)" fill="#778dfc" stroke="#4967ff" stroke-width="1">
        <circle cx="18.065" cy="18.065" r="18.065" stroke="none"/>
        <circle cx="18.065" cy="18.065" r="17.565" fill="none"/>
      </g>
      <g id="Ellipse_8" data-name="Ellipse 8" transform="translate(37.687 5.353)" fill="#acbafe" stroke="#4967ff" stroke-width="1">
        <circle cx="18.065" cy="18.065" r="18.065" stroke="none"/>
        <circle cx="18.065" cy="18.065" r="17.565" fill="none"/>
      </g>
      <g id="Path_60" data-name="Path 60" transform="translate(52.797 0.411)" fill="#f2f2f7">
        <path d="M 18.10029983520508 35.70059967041016 C 13.39908981323242 35.70059967041016 8.979269981384277 33.86985015869141 5.655009746551514 30.54558944702148 C 2.330749750137329 27.2213306427002 0.4999998211860657 22.80150985717773 0.4999998211860657 18.10029983520508 C 0.4999998211860657 13.39908981323242 2.330749750137329 8.979269981384277 5.655009746551514 5.655009746551514 C 8.979269981384277 2.330749750137329 13.39908981323242 0.4999998211860657 18.10029983520508 0.4999998211860657 C 22.80150985717773 0.4999998211860657 27.2213306427002 2.330749750137329 30.54558944702148 5.655009746551514 C 33.86985015869141 8.979269981384277 35.70059967041016 13.39908981323242 35.70059967041016 18.10029983520508 C 35.70059967041016 22.80150985717773 33.86985015869141 27.2213306427002 30.54558944702148 30.54558944702148 C 27.2213306427002 33.86985015869141 22.80150985717773 35.70059967041016 18.10029983520508 35.70059967041016 Z" stroke="none"/>
        <path d="M 18.10029983520508 1 C 13.53264045715332 1 9.238380432128906 2.778739929199219 6.008560180664062 6.008560180664062 C 2.778739929199219 9.238380432128906 1 13.53264045715332 1 18.10029983520508 C 1 22.66796112060547 2.778739929199219 26.96221923828125 6.008560180664062 30.19203948974609 C 9.238380432128906 33.42185974121094 13.53264045715332 35.20059967041016 18.10029983520508 35.20059967041016 C 22.66796112060547 35.20059967041016 26.96221923828125 33.42185974121094 30.19203948974609 30.19203948974609 C 33.42185974121094 26.96221923828125 35.20059967041016 22.66796112060547 35.20059967041016 18.10029983520508 C 35.20059967041016 13.53264045715332 33.42185974121094 9.238380432128906 30.19203948974609 6.008560180664062 C 26.96221923828125 2.778739929199219 22.66796112060547 1 18.10029983520508 1 M 18.10029983520508 0 C 28.09682083129883 0 36.20059967041016 8.103780746459961 36.20059967041016 18.10029983520508 C 36.20059967041016 28.09682083129883 28.09682083129883 36.20059967041016 18.10029983520508 36.20059967041016 C 8.103780746459961 36.20059967041016 0 28.09682083129883 0 18.10029983520508 C 0 8.103780746459961 8.103780746459961 0 18.10029983520508 0 Z" stroke="none" fill="#4967ff"/>
      </g>
      <g id="Ellipse_7" data-name="Ellipse 7" transform="translate(71.336 0)" fill="#fff" stroke="#4967ff" stroke-width="1">
        <circle cx="18.065" cy="18.065" r="18.065" stroke="none"/>
        <circle cx="18.065" cy="18.065" r="17.565" fill="none"/>
      </g>
    </g>
  </g>
</svg>
