<svg width="27" height="16" viewBox="0 0 27 16" fill="none" xmlns="http://www.w3.org/2000/svg">
<path d="M23.2211 6.78486L19.2212 2.78744C19.1083 2.67454 19.0187 2.54051 18.9576 2.393C18.8965 2.24549 18.8651 2.08739 18.8651 1.92773C18.8651 1.76807 18.8965 1.60997 18.9576 1.46246C19.0187 1.31495 19.1083 1.18092 19.2212 1.06802C19.3341 0.955119 19.4681 0.865563 19.6156 0.804462C19.7631 0.743362 19.9212 0.711914 20.0809 0.711914C20.2406 0.711914 20.3987 0.743362 20.5462 0.804462C20.6937 0.865563 20.8277 0.955119 20.9406 1.06802L25.2926 5.42244C25.6311 5.76074 25.8997 6.16242 26.0829 6.60455C26.2661 7.04667 26.3604 7.52056 26.3604 7.99915C26.3604 8.47773 26.2661 8.95162 26.0829 9.39374C25.8997 9.83587 25.6311 10.2376 25.2926 10.5759L20.9406 14.9303C20.7126 15.1583 20.4034 15.2864 20.0809 15.2864C19.7585 15.2864 19.4492 15.1583 19.2212 14.9303C18.9932 14.7023 18.8651 14.393 18.8651 14.0706C18.8651 13.7481 18.9932 13.4389 19.2212 13.2108L23.2211 9.21343H1.86663C1.54458 9.21343 1.23572 9.08549 1.008 8.85777C0.780277 8.63005 0.652344 8.32119 0.652344 7.99915C0.652344 7.6771 0.780277 7.36824 1.008 7.14052C1.23572 6.9128 1.54458 6.78486 1.86663 6.78486H23.2211Z" fill="white"/>
</svg>
