<?xml version="1.0" encoding="UTF-8"?>
<svg xmlns="http://www.w3.org/2000/svg" viewBox="0 0 150 116.25"><defs><style>.cls-1{opacity:0.3;}.cls-2{fill:#585869;}.cls-3{opacity:0.4;}.cls-4{fill:none;}.cls-5{opacity:0.8;}.cls-6{fill:#b4b4bf;}.cls-7{fill:#e8e8e8;}.cls-8{fill:#101010;}.cls-9{fill:#4463ff;}</style></defs><title>3_Intro-3</title><g id="Layer_2" data-name="Layer 2"><g id="Intro"><g class="cls-1" style="opacity:0.3;" ><rect class="cls-2" x="31.45" y="45.83" width="0.74" height="23.81" style="fill:#585869;" /><rect class="cls-2" x="26.91" y="43.27" width="0.74" height="26.37" style="fill:#585869;" /><rect class="cls-2" x="22.37" y="40.76" width="0.74" height="28.83" style="fill:#585869;" /><rect class="cls-2" x="16.41" y="49.33" width="19.8" height="0.74" style="fill:#585869;" /><rect class="cls-2" x="12.91" y="53.84" width="23.3" height="0.74" style="fill:#585869;" /><rect class="cls-2" x="18.75" y="58.21" width="17.46" height="0.74" style="fill:#585869;" /><rect class="cls-2" x="15.68" y="62.54" width="20.54" height="0.74" style="fill:#585869;" /><rect class="cls-2" x="21.31" y="66.86" width="14.9" height="0.74" style="fill:#585869;" /></g><g class="cls-3" style="opacity:0.4;" ><path class="cls-4" d="M132.77,63.46c3.79-1,7.71-2,10.79-5.05a15.84,15.84,0,0,0,1.33-1.55c-.49-.68-1-1.32-1.54-1.94a15.41,15.41,0,0,1-1.51,1.77c-3.19,3.19-7.18,4.21-11,5.2s-7.71,2-10.79,5a14.54,14.54,0,0,0-2.56,3.5h.42a6.23,6.23,0,0,1,2.08.37,15.36,15.36,0,0,1,1.77-2.16C124.91,65.47,128.9,64.45,132.77,63.46Z" style="fill:none;" /><path class="cls-4" d="M126.45,57.14c3.79-1,7.71-2,10.79-5a14.7,14.7,0,0,0,1.23-1.42c-.68-.45-1.38-.86-2.1-1.24a10.61,10.61,0,0,1-.85.94c-3.19,3.19-7.18,4.21-11,5.2s-7.72,2-10.79,5c-2.82,2.81-3.9,6.34-4.81,9.82H111a18.16,18.16,0,0,1,4.4-8.11C118.59,59.15,122.58,58.13,126.45,57.14Z" style="fill:none;" /><path class="cls-4" d="M106.61,46.63v.3l.62-.3Z" style="fill:none;" /><path class="cls-4" d="M108.64,46.63a18.76,18.76,0,0,0-2,.93l0,2.79c2.82-2.06,6.07-2.91,9.25-3.72Z" style="fill:none;" /><path class="cls-4" d="M128.55,59.25c3.79-1,7.71-2,10.79-5a13.41,13.41,0,0,0,1.48-1.76c-.6-.52-1.24-1-1.89-1.46a16.41,16.41,0,0,1-1.3,1.5c-3.19,3.18-7.18,4.21-11,5.19s-7.71,2-10.79,5a17.53,17.53,0,0,0-4.22,7.72h2.23a16.3,16.3,0,0,1,3.71-6C120.7,61.26,124.69,60.23,128.55,59.25Z" style="fill:none;" /><path class="cls-4" d="M130.66,61.35c3.79-1,7.71-2,10.79-5.05A14.08,14.08,0,0,0,143,54.5a23.13,23.13,0,0,0-1.73-1.7,13.91,13.91,0,0,1-1.51,1.79c-3.18,3.18-7.18,4.2-11,5.19s-7.71,2-10.79,5a15.78,15.78,0,0,0-3.51,5.61h2.43a15.07,15.07,0,0,1,2.8-3.89C122.8,63.36,126.8,62.34,130.66,61.35Z" style="fill:none;" /><path class="cls-4" d="M146.83,60.06c-.25.29-.5.57-.78.85-3.18,3.18-7.18,4.2-11,5.19s-7.71,2-10.79,5.05a14,14,0,0,0-1.47,1.74A6,6,0,0,1,124,76.55l25.47-.46v-5A24.33,24.33,0,0,0,146.83,60.06Z" style="fill:none;" /><path class="cls-4" d="M134.87,65.57c3.79-1,7.71-2,10.79-5,.32-.32.62-.66.89-1a23.37,23.37,0,0,0-1.33-2.2A14.35,14.35,0,0,1,144,58.8C140.76,62,136.77,63,132.9,64s-7.71,2-10.79,5.05a14.43,14.43,0,0,0-1.64,2,6.11,6.11,0,0,1,1.92,1.42,15,15,0,0,1,1.44-1.69C127,67.58,131,66.55,134.87,65.57Z" style="fill:none;" /><path class="cls-4" d="M118,48.71a36.82,36.82,0,0,0,6.46-2.08H118l-2,.51c-3.27.84-6.64,1.7-9.48,3.9l0,3.32.44-.45C110.16,50.72,114.16,49.7,118,48.71Z" style="fill:none;" /><path class="cls-4" d="M122.23,52.93c3.76-1,7.65-2,10.71-5a23.63,23.63,0,0,0-2.77-.77c-3,2.4-6.49,3.3-9.91,4.17-3.79,1-7.71,2-10.79,5a15.12,15.12,0,0,0-3,4.36l0,6.7c.89-3.31,2-6.62,4.75-9.34C114.37,54.93,118.37,53.91,122.23,52.93Z" style="fill:none;" /><path class="cls-4" d="M120.13,50.82c3.21-.82,6.51-1.67,9.32-3.78a24.7,24.7,0,0,0-3.77-.4,32.43,32.43,0,0,1-7.52,2.61c-3.8,1-7.72,2-10.79,5a11.76,11.76,0,0,0-.83.91l0,4.3a15.33,15.33,0,0,1,2.58-3.5C112.27,52.83,116.26,51.81,120.13,50.82Z" style="fill:none;" /><path class="cls-4" d="M124.34,55c3.79-1,7.71-2,10.79-5.05.26-.26.51-.53.74-.81a24.51,24.51,0,0,0-2.35-1l-.11.11c-3.18,3.19-7.18,4.21-11,5.2s-7.71,2-10.79,5-4.08,7-5,10.79c0,.14-.07.28-.11.42v.72h1.9c.94-3.6,2-7.26,5-10.21C116.48,57,120.48,56,124.34,55Z" style="fill:none;" /><path class="cls-2" d="M132.9,64c3.87-1,7.86-2,11-5.19a14.35,14.35,0,0,0,1.27-1.47l-.33-.47a15.84,15.84,0,0,1-1.33,1.55c-3.08,3.08-7,4.08-10.79,5.05s-7.86,2-11.05,5.19A15.36,15.36,0,0,0,120,70.81l.52.22a14.43,14.43,0,0,1,1.64-2C125.19,66,129.11,65,132.9,64Z" style="fill:#585869;" /><path class="cls-2" d="M130.8,61.89c3.86-1,7.85-2,11-5.2a15.41,15.41,0,0,0,1.51-1.77c-.13-.14-.25-.29-.38-.42a14.08,14.08,0,0,1-1.52,1.8c-3.08,3.08-7,4.08-10.79,5.05s-7.86,2-11,5.2a15.07,15.07,0,0,0-2.8,3.89h.63a14.54,14.54,0,0,1,2.56-3.5C123.09,63.86,127,62.86,130.8,61.89Z" style="fill:#585869;" /><path class="cls-2" d="M128.69,59.78c3.86-1,7.86-2,11-5.19a13.91,13.91,0,0,0,1.51-1.79l-.42-.36a13.41,13.41,0,0,1-1.48,1.76c-3.08,3.07-7,4.08-10.79,5s-7.85,2-11,5.19a16.3,16.3,0,0,0-3.71,6h.59a15.78,15.78,0,0,1,3.51-5.61C121,61.75,124.9,60.75,128.69,59.78Z" style="fill:#585869;" /><path class="cls-2" d="M126.58,57.67c3.87-1,7.86-2,11-5.19a16.41,16.41,0,0,0,1.3-1.5l-.46-.31a14.7,14.7,0,0,1-1.23,1.42c-3.08,3.08-7,4.08-10.79,5s-7.86,2-11,5.19a18.16,18.16,0,0,0-4.4,8.11h.57a17.53,17.53,0,0,1,4.22-7.72C118.87,59.65,122.79,58.64,126.58,57.67Z" style="fill:#585869;" /><path class="cls-2" d="M124.48,55.57c3.86-1,7.85-2,11-5.2a10.61,10.61,0,0,0,.85-.94l-.5-.26c-.23.28-.48.55-.74.81-3.08,3.08-7,4.08-10.79,5.05s-7.86,2-11,5.2c-3,3-4,6.61-5,10.21h.57c.91-3.48,2-7,4.81-9.82C116.76,57.54,120.68,56.54,124.48,55.57Z" style="fill:#585869;" /><path class="cls-2" d="M111.58,58.51c3.08-3.08,7-4.08,10.79-5s7.86-2,11-5.2l.11-.11-.58-.2c-3.06,3-7,4-10.71,5s-7.86,2-11,5.19c-2.72,2.72-3.86,6-4.75,9.34l0,2.26c0-.14.07-.28.11-.42C107.5,65.51,108.5,61.59,111.58,58.51Z" style="fill:#585869;" /><path class="cls-2" d="M120.26,51.35c3.42-.87,6.94-1.77,9.91-4.17l-.72-.14c-2.81,2.11-6.11,3-9.32,3.78-3.87,1-7.86,2-11,5.19a15.33,15.33,0,0,0-2.58,3.5v1.25a15.12,15.12,0,0,1,3-4.36C112.55,53.32,116.47,52.32,120.26,51.35Z" style="fill:#585869;" /><path class="cls-2" d="M118.16,49.25a32.43,32.43,0,0,0,7.52-2.61h-1.2A36.82,36.82,0,0,1,118,48.71c-3.86,1-7.86,2-11,5.2l-.44.45v.85a11.76,11.76,0,0,1,.83-.91C110.44,51.22,114.36,50.22,118.16,49.25Z" style="fill:#585869;" /><path class="cls-2" d="M118,46.63h-2.17c-3.18.81-6.43,1.66-9.25,3.72V51c2.84-2.2,6.21-3.06,9.48-3.9Z" style="fill:#585869;" /><path class="cls-2" d="M107.22,46.63l-.62.3v.63a18.76,18.76,0,0,1,2-.93Z" style="fill:#585869;" /></g><g class="cls-5" style="opacity:0.8;" ><path class="cls-2" d="M43.59,46.38H32.14a6.66,6.66,0,0,1-6.66-6.66V30.48a6.67,6.67,0,0,1,6.66-6.67H46.22a.56.56,0,0,1,0,1.11H32.14a5.56,5.56,0,0,0-5.56,5.56v9.24a5.56,5.56,0,0,0,5.56,5.55H43.59a.56.56,0,1,1,0,1.11Z" style="fill:#585869;" /><path class="cls-6" d="M43.4,70.19H25a25,25,0,0,1-25-25V25.27A25.15,25.15,0,0,1,25,0H94.24a.56.56,0,0,1,0,1.11H25A24,24,0,0,0,1.11,25.27V45.21A23.9,23.9,0,0,0,25,69.09H43.4a.56.56,0,0,1,.56.55A.55.55,0,0,1,43.4,70.19Z" style="fill:#b4b4bf;" /></g><g class="cls-5" style="opacity:0.8;" ><path class="cls-2" d="M117.86,92.43H103.78a.54.54,0,0,1-.55-.55.55.55,0,0,1,.55-.55h14.08a5.56,5.56,0,0,0,5.56-5.56V76.53A5.56,5.56,0,0,0,117.86,71H106.41a.56.56,0,1,1,0-1.11h11.45a6.66,6.66,0,0,1,6.66,6.66v9.24A6.66,6.66,0,0,1,117.86,92.43Z" style="fill:#585869;" /><path class="cls-6" d="M125,116.25H54.55a.56.56,0,0,1,0-1.11H125A24,24,0,0,0,148.89,91V71A23.9,23.9,0,0,0,125,47.16H106.6a.56.56,0,0,1-.56-.55.55.55,0,0,1,.56-.55H125a25,25,0,0,1,25,25V91A25.16,25.16,0,0,1,125,116.25Z" style="fill:#b4b4bf;" /></g><g id="Layer_2-2" data-name="Layer 2"><g id="Layer_1-2" data-name="Layer 1-2"><rect class="cls-7" x="36.21" y="19.43" width="77.57" height="77.57" rx="19.42" style="fill:#e8e8e8;" /><polygon class="cls-8" points="75.71 63.09 70.59 48.96 66.23 48.96 66.23 67.44 69.38 67.44 69.38 54.42 74.13 67.44 77.22 67.44 81.97 54.42 81.97 67.44 85.19 67.44 85.19 48.96 80.84 48.96 75.71 63.09" style="fill:#101010;" /><path class="cls-8" d="M54.55,48.51c-5.67,0-9.27,4.28-9.27,9.71s3.6,9.69,9.27,9.69,9.27-4.24,9.27-9.69S60.23,48.51,54.55,48.51Zm0,16.11c-3.62,0-5.78-2.72-5.78-6.39s2.16-6.41,5.78-6.41,5.79,2.74,5.79,6.4S58.17,64.62,54.55,64.62Z" style="fill:#101010;" /><path class="cls-8" d="M96.11,60.72h5.3c-.31,2.69-2.27,4-4.78,4C93,64.68,91,62,91,58.23c0-3.56,1.76-6.49,5.52-6.49,2.45,0,4.43,1.25,4.65,3.35h3.51c-.48-4.22-3.7-6.57-8.06-6.57-6.18,0-9,4.75-9,9.82,0,5.44,3.32,9.56,8.5,9.56,3,0,4.73-1.4,5.41-2.59v2.11h3.2V57.54H96.11Z" style="fill:#101010;" /></g></g><rect class="cls-9" x="35.62" y="115.1" width="10.44" height="0.74" style="fill:#4463ff;" /><rect class="cls-9" x="103.35" y="0.18" width="10.44" height="0.74" style="fill:#4463ff;" /></g></g></svg>
