<?xml version="1.0" encoding="UTF-8"?>
<svg
	xmlns="http://www.w3.org/2000/svg"
	xmlns:xlink="http://www.w3.org/1999/xlink" viewBox="0 0 150 134.14">
	<defs>
		<style>.cls-1{fill:none;}.cls-2{clip-path:url(#clip-path);}.cls-3{fill:#585869;}.cls-4{fill:#101010;opacity:0.6;}.cls-5{opacity:0.8;}.cls-6{fill:url(#linear-gradient);}.cls-7{fill:url(#linear-gradient-2);}.cls-8{fill:url(#linear-gradient-3);}.cls-9{fill:url(#linear-gradient-4);}.cls-10{fill:#e8e8e8;}.cls-11{fill:#4463ff;}</style>
		<clipPath id="clip-path" transform="translate(0 7.08)">
			<path class="cls-1" d="M.31,125.8H73a34.6,34.6,0,0,0,34.59-34.6V34.59A34.59,34.59,0,0,0,73,0H36.12V25.16H69.88A12.58,12.58,0,0,1,82.46,37.74V88.06a12.58,12.58,0,0,1-12.58,12.58H.31Z" style="fill:none;" />
		</clipPath>
		<linearGradient id="linear-gradient" x1="114.71" y1="78.61" x2="114.71" y2="101.34" gradientUnits="userSpaceOnUse">
			<stop offset="0" stop-color="#585869"/>
			<stop offset="1" stop-color="#e8e8e8"/>
		</linearGradient>
		<linearGradient id="linear-gradient-2" x1="127.83" y1="54.7" x2="127.83" y2="125.9" xlink:href="#linear-gradient"/>
		<linearGradient id="linear-gradient-3" x1="36.95" y1="24.63" x2="36.95" y2="47.36" xlink:href="#linear-gradient"/>
		<linearGradient id="linear-gradient-4" x1="39.03" y1="71.89" x2="39.03" y2="0.11" gradientUnits="userSpaceOnUse">
			<stop offset="0" stop-color="#e8e8e8"/>
			<stop offset="1" stop-color="#585869"/>
		</linearGradient>
	</defs>
	<title>1_Intro-1</title>
	<g id="Layer_2" data-name="Layer 2">
		<g id="Intro">
			<g class="cls-2" style="clip-path:url(#clip-path);" >
				<rect class="cls-3" x="20.37" y="0.18" width="0.63" height="133.81" style="fill:#585869;" />
				<rect class="cls-3" x="14.92" y="0.18" width="0.63" height="133.81" style="fill:#585869;" />
				<rect class="cls-3" x="25.66" y="0.18" width="0.63" height="133.81" style="fill:#585869;" />
				<rect class="cls-3" x="30.95" y="0.18" width="0.63" height="133.81" style="fill:#585869;" />
				<rect class="cls-3" x="36.24" y="32.64" width="0.63" height="101.34" style="fill:#585869;" />
				<rect class="cls-3" x="41.53" y="0.18" width="0.63" height="133.81" style="fill:#585869;" />
				<rect class="cls-3" x="47.03" y="0.18" width="0.63" height="133.81" style="fill:#585869;" />
				<rect class="cls-3" x="52.32" y="0.18" width="0.63" height="133.81" style="fill:#585869;" />
				<rect class="cls-3" x="57.61" y="0.18" width="0.63" height="133.81" style="fill:#585869;" />
				<rect class="cls-3" x="62.91" y="0.18" width="0.63" height="133.81" style="fill:#585869;" />
				<rect class="cls-3" x="68.2" y="0.18" width="0.63" height="133.81" style="fill:#585869;" />
				<rect class="cls-3" x="73.49" y="0.18" width="0.63" height="133.81" style="fill:#585869;" />
				<rect class="cls-3" x="78.78" y="0.18" width="0.63" height="133.81" style="fill:#585869;" />
				<rect class="cls-3" x="84.07" y="0.18" width="0.63" height="133.81" style="fill:#585869;" />
				<rect class="cls-3" x="89.57" y="0.18" width="0.63" height="133.81" style="fill:#585869;" />
				<rect class="cls-3" x="94.86" y="0.18" width="0.63" height="133.81" style="fill:#585869;" />
				<rect class="cls-3" x="100.15" y="0.18" width="0.63" height="133.81" style="fill:#585869;" />
				<rect class="cls-3" x="105.44" y="0.18" width="0.63" height="133.81" style="fill:#585869;" />
				<rect class="cls-3" x="110.76" y="0.18" width="0.63" height="133.81" style="fill:#585869;" />
				<rect class="cls-3" x="116.26" y="0.18" width="0.63" height="133.81" style="fill:#585869;" />
				<rect class="cls-3" x="121.55" y="0.18" width="0.63" height="133.81" style="fill:#585869;" />
				<rect class="cls-3" x="4.37" y="133.51" width="133.81" height="0.63" style="fill:#585869;" />
				<rect class="cls-3" x="0.31" y="128.22" width="137.86" height="0.63" style="fill:#585869;" />
				<rect class="cls-3" x="0.31" y="122.93" width="137.86" height="0.63" style="fill:#585869;" />
				<rect class="cls-3" x="0.31" y="117.63" width="137.86" height="0.63" style="fill:#585869;" />
				<rect class="cls-3" x="0.31" y="112.34" width="137.86" height="0.63" style="fill:#585869;" />
				<rect class="cls-3" x="4.37" y="106.85" width="133.81" height="0.63" style="fill:#585869;" />
				<rect class="cls-3" x="4.37" y="101.55" width="133.81" height="0.63" style="fill:#585869;" />
				<rect class="cls-3" x="4.37" y="96.26" width="133.81" height="0.63" style="fill:#585869;" />
				<rect class="cls-3" x="4.37" y="90.97" width="133.81" height="0.63" style="fill:#585869;" />
				<rect class="cls-3" x="4.37" y="85.68" width="133.81" height="0.63" style="fill:#585869;" />
				<rect class="cls-3" x="4.37" y="80.39" width="133.81" height="0.63" style="fill:#585869;" />
				<rect class="cls-3" x="4.37" y="75.1" width="133.81" height="0.63" style="fill:#585869;" />
				<rect class="cls-3" x="4.37" y="69.81" width="133.81" height="0.63" style="fill:#585869;" />
				<rect class="cls-3" x="4.37" y="64.31" width="133.81" height="0.63" style="fill:#585869;" />
				<rect class="cls-3" x="4.37" y="59.02" width="133.81" height="0.63" style="fill:#585869;" />
				<rect class="cls-3" x="4.37" y="53.73" width="133.81" height="0.63" style="fill:#585869;" />
				<rect class="cls-3" x="4.37" y="48.44" width="133.81" height="0.63" style="fill:#585869;" />
				<rect class="cls-3" x="4.37" y="43.12" width="133.81" height="0.63" style="fill:#585869;" />
				<rect class="cls-3" x="4.37" y="37.62" width="133.81" height="0.63" style="fill:#585869;" />
				<rect class="cls-3" x="4.37" y="32.33" width="133.81" height="0.63" style="fill:#585869;" />
				<rect class="cls-3" x="14.1" y="27.04" width="124.07" height="0.63" style="fill:#585869;" />
				<rect class="cls-3" x="14.1" y="21.72" width="124.07" height="0.63" style="fill:#585869;" />
				<rect class="cls-3" x="14.1" y="16.22" width="124.07" height="0.63" style="fill:#585869;" />
				<rect class="cls-3" x="14.1" y="10.93" width="124.07" height="0.63" style="fill:#585869;" />
				<rect class="cls-3" x="4.37" y="5.32" width="133.81" height="0.63" style="fill:#585869;" />
				<rect class="cls-3" x="4.37" width="133.81" height="0.63" style="fill:#585869;" />
				<rect class="cls-3" x="9.43" y="0.18" width="0.63" height="133.81" style="fill:#585869;" />
				<rect class="cls-3" x="4.18" y="0.18" width="0.63" height="133.81" style="fill:#585869;" />
			</g>
			<path class="cls-1" d="M13.47,125.87H73a34.6,34.6,0,0,0,34.59-34.6V34.67A34.6,34.6,0,0,0,73,.07H36.12" transform="translate(0 7.08)" style="fill:none;" />
			<path class="cls-1" d="M36.12,25.23H69.88A12.58,12.58,0,0,1,82.46,37.81V88.13a12.58,12.58,0,0,1-12.58,12.58H13.47" transform="translate(0 7.08)" style="fill:none;" />
			<path class="cls-4" d="M69.69,37.86V88.18a12.58,12.58,0,0,0,12.58,12.58H116.6V94.47H82.27A6.29,6.29,0,0,1,76,88.18V37.86a6.29,6.29,0,0,1,6.29-6.29h57V25.28h-57A12.58,12.58,0,0,0,69.69,37.86Z" transform="translate(0 7.08)" style="fill:#101010;opacity:0.6;" />
			<g class="cls-5" style="opacity:0.8;" >
				<path class="cls-6" d="M117.16,101.34h-.74a.32.32,0,0,1,0-.63h.74a6,6,0,0,0,6-6V85.22a6,6,0,0,0-6-6H106a.32.32,0,0,1,0-.63h11.2a6.61,6.61,0,0,1,6.6,6.61v9.52A6.61,6.61,0,0,1,117.16,101.34Z" transform="translate(0 7.08)" style="fill:url(#linear-gradient);" />
				<path class="cls-7" d="M124.51,125.9h-7.89a.32.32,0,1,1,0-.63h7.89a24.83,24.83,0,0,0,24.85-24.74V80.07a24.82,24.82,0,0,0-24.84-24.74H106a.32.32,0,0,1-.31-.32.31.31,0,0,1,.31-.31h18.57A25.45,25.45,0,0,1,150,80.07v20.46A25.45,25.45,0,0,1,124.51,125.9Z" transform="translate(0 7.08)" style="fill:url(#linear-gradient-2);" />
			</g>
			<g class="cls-5" style="opacity:0.8;" >
				<path class="cls-8" d="M44.64,47.36H32.84a6.61,6.61,0,0,1-6.6-6.6V31.24a6.62,6.62,0,0,1,6.6-6.61H47.35a.32.32,0,0,1,.31.32.31.31,0,0,1-.31.31H32.84a6,6,0,0,0-6,6v9.52a6,6,0,0,0,6,6h11.8a.32.32,0,0,1,0,.63Z" transform="translate(0 7.08)" style="fill:url(#linear-gradient-3);" />
				<path class="cls-9" d="M44.44,71.89H25.49A25.51,25.51,0,0,1,0,46.41V25.88A25.65,25.65,0,0,1,25.47.11H77.74a.32.32,0,1,1,0,.63H25.47A25,25,0,0,0,.63,25.88V46.41A24.88,24.88,0,0,0,25.49,71.26h19a.32.32,0,1,1,0,.63Z" transform="translate(0 7.08)" style="fill:url(#linear-gradient-4);" />
			</g>
			<path class="cls-10" d="M116.62,125.87H79.14a34.6,34.6,0,0,1-34.6-34.6V34.67A34.6,34.6,0,0,1,79.14.07h70.55V25.23H82.28A12.58,12.58,0,0,0,69.7,37.81V88.13a12.58,12.58,0,0,0,12.58,12.58h34.34Z" transform="translate(0 7.08)" style="fill:#e8e8e8;" />
			<rect class="cls-11" x="52.23" y="93.5" width="10.06" height="10.06" rx="3.14" style="fill:#4463ff;" />
			<path class="cls-11" d="M62.3,89.8v-.51H59.39V86.41h-.51v2.88H55.55V86.41H55v2.88H52.23v.51H55v3.29H52.23v.51H55v2.88h.51V93.6h3.33v2.88h.51V93.6H62.3v-.51H59.39V89.8Zm-3.42,3.29H55.55V89.8h3.33Z" transform="translate(0 7.08)" style="fill:#4463ff;" />
			<rect class="cls-11" x="52.23" y="64.71" width="10.06" height="10.06" rx="3.14" style="fill:#4463ff;" />
			<path class="cls-11" d="M62.3,61V60.5H59.39V57.62h-.51V60.5H55.55V57.62H55V60.5H52.23V61H55v3.3H52.23v.5H55v2.88h.51V64.81h3.33v2.88h.51V64.81H62.3v-.5H59.39V61Zm-3.42,3.3H55.55V61h3.33Z" transform="translate(0 7.08)" style="fill:#4463ff;" />
			<rect class="cls-11" x="52.23" y="35.92" width="10.06" height="10.06" rx="3.14" style="fill:#4463ff;" />
			<path class="cls-11" d="M62.3,32.22v-.51H59.39V28.83h-.51v2.88H55.55V28.83H55v2.88H52.23v.51H55v3.3H52.23V36H55V38.9h.51V36h3.33V38.9h.51V36H62.3v-.5H59.39v-3.3Zm-3.42,3.3H55.55v-3.3h3.33Z" transform="translate(0 7.08)" style="fill:#4463ff;" />
			<rect class="cls-11" x="93.16" y="14.55" width="10.06" height="10.06" rx="3.14" style="fill:#4463ff;" />
			<path class="cls-11" d="M103.23,10.85v-.51h-2.91V7.46h-.51v2.88H96.48V7.46H96v2.88H93.16v.51H96v3.29H93.16v.51H96v2.88h.51V14.65h3.33v2.88h.51V14.65h2.91v-.51h-2.91V10.85Zm-3.42,3.29H96.48V10.85h3.33Z" transform="translate(0 7.08)" style="fill:#4463ff;" />
			<rect class="cls-11" x="119.14" y="14.55" width="10.06" height="10.06" rx="3.14" style="fill:#4463ff;" />
			<path class="cls-11" d="M129.21,10.85v-.51H126.3V7.46h-.51v2.88h-3.33V7.46H122v2.88h-2.81v.51H122v3.29h-2.81v.51H122v2.88h.51V14.65h3.33v2.88h.51V14.65h2.91v-.51H126.3V10.85Zm-3.42,3.29h-3.33V10.85h3.33Z" transform="translate(0 7.08)" style="fill:#4463ff;" />
			<rect class="cls-11" x="67.26" y="9.73" width="10.06" height="10.06" rx="3.14" transform="translate(55.14 -49.91) rotate(65.02)" style="fill:#4463ff;" />
			<path class="cls-11" d="M75.91,18.63l.45-.21-1.22-2.64,2.6-1.22-.21-.45-2.61,1.21-1.41-3,2.61-1.22-.21-.45L73.3,11.84,72.11,9.3l-.45.21,1.18,2.54-3,1.4L68.67,10.9l-.46.21,1.19,2.55-2.61,1.22.21.45,2.61-1.21,1.41,3-2.61,1.22.21.45,2.61-1.21,1.23,2.64.46-.22-1.23-2.64,3-1.39Zm-4.43-1.7-1.41-3,3-1.39,1.41,3Z" transform="translate(0 7.08)" style="fill:#4463ff;" />
			<rect class="cls-11" x="93.16" y="115.5" width="10.06" height="10.06" rx="3.14" style="fill:#4463ff;" />
			<path class="cls-11" d="M100.32,115.09V111.8h2.91v-.51h-2.91v-2.88h-.51v2.88H96.48v-2.88H96v2.88H93.16v.51H96v3.29H93.16v.51H96v2.88h.51V115.6h3.33v2.88h.51V115.6h2.91v-.51Zm-.51,0H96.48V111.8h3.33Z" transform="translate(0 7.08)" style="fill:#4463ff;" />
			<rect class="cls-11" x="67.26" y="106.14" width="10.06" height="10.06" rx="3.14" transform="translate(-59.02 136.83) rotate(-65.02)" style="fill:#4463ff;" />
			<path class="cls-11" d="M74.68,110l-3-1.39,1.23-2.64-.46-.22-1.23,2.64-2.61-1.21-.21.45L71,108.8l-1.41,3L67,110.61l-.21.45,2.61,1.22-1.19,2.55.46.21,1.18-2.55,3,1.4-1.18,2.54.45.21,1.19-2.54,2.61,1.21.21-.45-2.61-1.22,1.41-3,2.61,1.21.21-.45-2.6-1.22,1.22-2.64-.45-.21Zm-.21.45-1.41,3-3-1.39,1.41-3Z" transform="translate(0 7.08)" style="fill:#4463ff;" />
		</g>
	</g>
</svg>


