<?xml version="1.0" encoding="UTF-8"?>
<svg width="64px" height="92px" viewBox="0 0 64 92" version="1.1" xmlns="http://www.w3.org/2000/svg" xmlns:xlink="http://www.w3.org/1999/xlink">
    <!-- Generator: Sketch 59.1 (86144) - https://sketch.com -->
    <title>Door 3</title>
    <desc>Created with Sketch.</desc>
    <g id="Onboard_ONOV-2019" stroke="none" stroke-width="1" fill="none" fill-rule="evenodd">
        <g id="Onboard_Welcome" transform="translate(-29.000000, -171.000000)">
            <g id="Door-3" transform="translate(30.000000, 173.000000)">
                <polyline id="Path" stroke="#FFFFFF" stroke-width="2" points="0 90 0 20 38 0 38 31.4512166"></polyline>
                <rect id="Rectangle" fill="#FFFFFF" x="0" y="20" width="62.2222222" height="70"></rect>
                <path d="M19.658081,57.7088272 C25.537476,57.7088272 30.3036674,62.4750186 30.3036674,68.3544136 C30.3036674,74.2338086 25.537476,79 19.658081,79 C13.778686,79 9.0124946,74.2338086 9.0124946,68.3544136 C9.0124946,62.4750186 13.778686,57.7088272 19.658081,57.7088272 Z M19.658081,60.9365921 C15.5592472,60.9365921 12.2364859,64.2593535 12.2364859,68.3581873 C12.2364859,72.4570211 15.5592472,75.7797824 19.658081,75.7797824 C23.7540431,75.7728577 27.0727514,72.4541494 27.0796762,68.3581873 C27.0796762,64.2593535 23.7569148,60.9365921 19.658081,60.9365921 Z M30.3011516,35.0000019 L30.3011516,38.2202215 L27.2821977,38.2202215 C30.8181919,41.8514501 31.3053941,47.4715056 28.4470362,51.6570602 C25.5886784,55.8426147 20.1766789,57.4340453 15.507633,55.4619685 C10.8385871,53.4898917 8.20607083,48.5006785 9.21362109,43.5333937 C10.2211713,38.5661088 14.5896427,34.9969565 19.658081,35.0000019 L19.658081,35.0000019 L30.3011516,35.0000019 Z M42.3933201,35.0000039 C48.2727152,35.0000039 53.0389065,39.7661953 53.0389065,45.6455903 C53.0389065,51.5249853 48.2727152,56.2911767 42.3933201,56.2911767 C36.5139251,56.2911767 31.7477337,51.5249853 31.7477337,45.6455903 C31.7477337,39.7661953 36.5139251,35.0000039 42.3933201,35.0000039 Z M42.3933201,38.2277688 C38.2944863,38.2277688 34.971725,41.5505302 34.971725,45.649364 C34.971725,49.7481978 38.2944863,53.0709592 42.3933201,53.0709592 C46.4892822,53.0640344 49.8079906,49.7453261 49.8149153,45.649364 C49.8149153,41.5505302 46.492154,38.2277688 42.3933201,38.2277688 Z M19.658081,38.2239951 C15.5592472,38.2239951 12.2364859,41.5467565 12.2364859,45.6455903 C12.2364859,49.7444241 15.5592472,53.0671855 19.658081,53.0671855 C23.7569148,53.0671855 27.0796762,49.7444241 27.0796762,45.6455903 L27.0796762,45.6455903 C27.0765197,41.5481576 23.7555167,38.2288424 19.658081,38.2239951 Z" id="Combined-Shape" fill="#04070D" fill-rule="nonzero"></path>
            </g>
        </g>
    </g>
</svg>