<?xml version="1.0" encoding="utf-8"?>
<!-- Generator: Adobe Illustrator 24.0.3, SVG Export Plug-In . SVG Version: 6.00 Build 0)  -->
<svg version="1.1" id="Layer_1" xmlns="http://www.w3.org/2000/svg" xmlns:xlink="http://www.w3.org/1999/xlink" x="0px" y="0px"
	 viewBox="0 0 100 100"  xml:space="preserve" style="enable-background:new 0 0 100 100;" >
<style type="text/css">
	.st0{fill:#4463FF;}
	.st1{fill:#101010;}
	.st2{clip-path:url(#SVGID_2_);}
	.st3{opacity:0.4;}
	.st4{fill:#ABB9FF;}
	.st5{fill:#00DAAF;}
	.st6{fill:none;stroke:#00DAAF;stroke-width:2;stroke-linecap:round;stroke-linejoin:round;}
	.st7{fill:none;stroke:#4463FF;stroke-width:2;stroke-linecap:round;stroke-linejoin:round;}
</style>
<title>4_Agreement</title>
<g id="Layer_2_1_">
	<g id="Intro">
		<path class="st0" d="M47.8,33.5h18.7V14.2C66.4,6.4,60.1,0,52.2,0h-38C6.4,0,0,6.4,0,14.2v38c0,7.9,6.4,14.2,14.2,14.2h19.3V47.8
			C33.5,39.9,39.9,33.6,47.8,33.5C47.8,33.5,47.8,33.5,47.8,33.5z" style="fill:#4463FF;" />
		<path class="st1" d="M85.8,33.5H66.4v18.7c0,7.9-6.4,14.2-14.2,14.2c0,0,0,0,0,0H33.5v19.3c0,7.9,6.4,14.2,14.2,14.2h0h38
			c7.9,0,14.2-6.4,14.2-14.2v-38C100,39.9,93.6,33.5,85.8,33.5z" style="fill:#101010;" />
		<g>
			<defs>
				<path id="SVGID_1_" d="M30.4,16.7h39.7c7.4,0,13.4,6,13.4,13.4v39.7c0,7.4-6,13.4-13.4,13.4H30.4c-7.4,0-13.4-6-13.4-13.4V30.1
					C17,22.7,23,16.7,30.4,16.7z"/>
			</defs>
			<clipPath id="SVGID_2_">
				<use xlink:href="#SVGID_1_" style="overflow:visible;" />
			</clipPath>
			<g class="st2" style="clip-path:url(#SVGID_2_);" >
				<g class="st3" style="opacity:0.4;" >
					<path class="st4" d="M35.3,137.1c4-4,9.1-5.3,14.1-6.6s10.2-2.6,14.4-6.8s5.5-9.4,6.8-14.4s2.6-10.1,6.6-14.1l0.1-0.1l0,0
						l0.2-0.2c4.2-4.2,5.5-9.4,6.8-14.4s2.6-10,6.6-14.1s9.1-5.3,14.1-6.6s10.2-2.6,14.4-6.8s5.5-9.4,6.8-14.4
						c0.6-2.7,1.4-5.3,2.5-7.9l0.1-0.2l-0.7-0.3l-0.1,0.2c-1.1,2.6-1.9,5.3-2.5,8c-1.3,5-2.6,10.1-6.6,14.1s-9.1,5.3-14.1,6.6
						s-10.2,2.6-14.4,6.8s-5.5,9.4-6.8,14.4s-2.6,10-6.6,14.1l-0.1,0.1l0,0l-0.2,0.2c-4.2,4.2-5.5,9.4-6.8,14.4s-2.6,10-6.6,14.1
						s-9.1,5.3-14.1,6.6s-10.2,2.6-14.4,6.8S29.3,146,28,151c-0.6,2.7-1.4,5.3-2.5,7.9l-0.1,0.2l0.7,0.3l0.1-0.2
						c1-2.6,1.9-5.3,2.5-8C30,146.2,31.3,141.1,35.3,137.1z" style="fill:#ABB9FF;" />
					<path class="st4" d="M32.6,134.4c4-4,9.1-5.3,14.1-6.6s10.2-2.6,14.4-6.8s5.5-9.4,6.8-14.4s2.6-10.1,6.6-14.1l0.1-0.1l0,0
						l0.2-0.2c4.2-4.2,5.5-9.4,6.8-14.4S84,67.8,88,63.8s9.1-5.3,14.1-6.6s10.2-2.6,14.4-6.8s5.5-9.4,6.8-14.4
						c0.6-2.7,1.4-5.3,2.5-7.9l0.1-0.2l-0.7-0.3l-0.1,0.2c-1,2.6-1.9,5.3-2.5,8c-1.3,4.9-2.6,10-6.6,14.1s-9.1,5.3-14.1,6.6
						s-10.2,2.6-14.4,6.8s-5.5,9.4-6.8,14.4s-2.6,10-6.6,14.1L74,91.9l0,0L73.9,92c-4.2,4.2-5.5,9.4-6.8,14.4s-2.6,10.1-6.6,14.1
						s-9.1,5.3-14.1,6.6s-10.2,2.6-14.4,6.8s-5.5,9.4-6.8,14.4c-0.6,2.7-1.4,5.3-2.5,7.9l-0.1,0.2l0.7,0.3l0.1-0.2
						c1-2.6,1.9-5.3,2.5-8C27.2,143.5,28.5,138.4,32.6,134.4z" style="fill:#ABB9FF;" />
					<path class="st4" d="M29.8,131.6c4-4,9.1-5.3,14.1-6.6s10.2-2.6,14.4-6.8s5.5-9.4,6.8-14.4s2.6-10,6.6-14.1l0.1-0.1l0,0
						l0.2-0.2c4.2-4.2,5.5-9.4,6.8-14.4s2.6-10.1,6.6-14.1s9.1-5.3,14.1-6.6s10.2-2.6,14.4-6.8s5.5-9.4,6.8-14.4
						c0.6-2.7,1.5-5.3,2.5-7.9l0.1-0.2l-0.7-0.3l-0.1,0.2c-1,2.6-1.9,5.3-2.5,8c-1.3,4.9-2.6,10.1-6.6,14.1s-9.1,5.3-14.1,6.6
						s-10.2,2.6-14.4,6.8S79.2,69.9,78,75s-2.6,10-6.6,14l-0.1,0.1l0,0l-0.2,0.2c-4.2,4.2-5.5,9.4-6.8,14.4s-2.6,10.1-6.6,14.1
						s-9.1,5.3-14.1,6.6s-10.2,2.6-14.4,6.8c-4.2,4.2-5.5,9.4-6.8,14.4c-0.6,2.7-1.4,5.3-2.5,7.9l-0.1,0.2l0.7,0.3l0.1-0.2
						c1.1-2.6,1.9-5.3,2.5-8C24.5,140.7,25.8,135.6,29.8,131.6z" style="fill:#ABB9FF;" />
					<path class="st4" d="M27.1,128.9c4-4,9.1-5.3,14.1-6.6s10.2-2.6,14.4-6.8s5.5-9.4,6.8-14.4S64.9,91,68.9,87H69l0,0l0.2-0.2
						c4.2-4.2,5.5-9.4,6.8-14.4s2.6-10,6.6-14.1s9.1-5.4,14-6.6s10.2-2.6,14.4-6.7s5.5-9.4,6.8-14.4c0.6-2.7,1.4-5.3,2.5-7.9
						l0.1-0.2l-0.7-0.3l-0.1,0.2c-1.1,2.6-1.9,5.3-2.5,8c-1.3,5-2.6,10.1-6.6,14.1s-9.1,5.3-14.1,6.6S86.1,53.7,82,57.8
						s-5.5,9.4-6.8,14.4s-2.6,10.1-6.6,14.1l-0.1,0.1l0,0l-0.2,0.2c-4.2,4.2-5.5,9.4-6.8,14.4S59,111,55,115s-9.1,5.3-14,6.6
						s-10.2,2.6-14.4,6.8s-5.5,9.4-6.8,14.4c-0.6,2.7-1.4,5.3-2.5,7.9l-0.1,0.2l0.7,0.3l0.1-0.2c1.1-2.6,1.9-5.3,2.5-8
						C21.7,138,23,132.9,27.1,128.9z" style="fill:#ABB9FF;" />
					<path class="st4" d="M24.3,126.1c4-4,9.1-5.3,14.1-6.6s10.2-2.6,14.4-6.8s5.5-9.4,6.8-14.4s2.6-10.1,6.6-14.1l0.1-0.1l0,0
						l0.2-0.2c4.2-4.2,5.5-9.4,6.8-14.4s2.6-10,6.6-14.1s9.1-5.3,14.1-6.6s10.2-2.6,14.4-6.8s5.5-9.4,6.8-14.4
						c0.6-2.7,1.4-5.3,2.5-7.9l0.1-0.2l-0.7-0.3l-0.1,0.2c-1.1,2.6-1.9,5.3-2.5,8c-1.3,4.9-2.6,10-6.6,14.1s-9.1,5.3-14.1,6.6
						s-10.2,2.6-14.4,6.8s-5.5,9.4-6.8,14.4s-2.6,10-6.6,14.1l-0.1,0.1l0,0l-0.2,0.2c-4.2,4.2-5.5,9.4-6.8,14.4s-2.6,10-6.6,14.1
						s-9.1,5.3-14.1,6.6s-10.2,2.6-14.4,6.8S18.3,135,17,140c-0.6,2.7-1.4,5.3-2.5,7.9l-0.1,0.2l0.7,0.3l0.1-0.2
						c1-2.6,1.9-5.3,2.5-8C19,135.2,20.3,130.1,24.3,126.1z" style="fill:#ABB9FF;" />
					<path class="st4" d="M21.6,123.4c4-4,9.1-5.3,14.1-6.6s10.2-2.6,14.4-6.8s5.5-9.4,6.8-14.4s2.6-10.1,6.6-14.1l0.1-0.1l0,0
						l0.2-0.2c4.2-4.2,5.5-9.4,6.8-14.4S73,56.8,77,52.8s9.1-5.3,14.1-6.6s10.2-2.6,14.4-6.8s5.5-9.4,6.8-14.4
						c0.6-2.7,1.4-5.3,2.5-7.9l0.1-0.2l-0.7-0.3l-0.1,0.2c-1,2.6-1.9,5.3-2.5,8c-1.3,5-2.5,10.1-6.5,14.1s-9.1,5.3-14.1,6.6
						s-10.2,2.6-14.4,6.8s-5.5,9.3-6.8,14.4s-2.6,10-6.6,14.1L63,80.9l0,0L62.9,81c-4.2,4.2-5.5,9.4-6.8,14.4s-2.6,10.1-6.6,14.1
						s-9.1,5.3-14.1,6.6s-10.2,2.6-14.4,6.8s-5.5,9.4-6.8,14.4c-0.6,2.7-1.4,5.3-2.5,7.9l-0.1,0.2l0.7,0.3l0.1-0.2
						c1-2.6,1.9-5.3,2.5-8C16.2,132.5,17.6,127.4,21.6,123.4z" style="fill:#ABB9FF;" />
					<path class="st4" d="M18.8,120.6c4-4,9.1-5.3,14.1-6.6s10.2-2.6,14.4-6.8s5.5-9.4,6.8-14.4s2.6-10,6.6-14.1l0.1-0.1l0,0
						l0.2-0.2c4.2-4.2,5.5-9.4,6.8-14.4s2.6-10.1,6.6-14.1s9.1-5.3,14.1-6.6s10.2-2.6,14.4-6.8s5.5-9.4,6.8-14.4
						c0.6-2.7,1.5-5.3,2.5-7.9l0.1-0.2l-0.7-0.3l-0.1,0.2c-1,2.6-1.9,5.3-2.5,8c-1.3,4.9-2.6,10.1-6.6,14.1s-9.1,5.3-14.1,6.6
						s-10.2,2.6-14.4,6.8S68.2,58.9,67,64s-2.6,10-6.6,14.1l-0.1,0.1l0,0l-0.2,0.2c-4.2,4.2-5.5,9.4-6.8,14.4s-2.6,10.1-6.6,14.1
						s-9.1,5.3-14.1,6.6s-10.2,2.7-14.4,6.8s-5.5,9.4-6.8,14.4c-0.6,2.7-1.4,5.3-2.5,7.9L9,142.6l0.7,0.3l0.1-0.2
						c1.1-2.6,1.9-5.3,2.5-8C13.5,129.7,14.8,124.6,18.8,120.6z" style="fill:#ABB9FF;" />
					<path class="st4" d="M16.1,117.9c4-4,9.1-5.3,14.1-6.6s10.2-2.6,14.4-6.8s5.5-9.4,6.8-14.4s2.6-10,6.6-14.1l0.1,0l0,0l0.2-0.2
						c4.2-4.2,5.5-9.4,6.8-14.4s2.6-10,6.6-14.1s9.1-5.4,14-6.6S95.8,38.1,100,34s5.5-9.4,6.8-14.4c0.6-2.7,1.4-5.3,2.5-7.9l0.1-0.2
						l-0.7-0.3l-0.1,0.2c-1.1,2.6-1.9,5.3-2.5,8c-1.3,5-2.6,10.1-6.6,14.1s-9.1,5.3-14.1,6.6S75.1,42.7,71,46.8s-5.5,9.4-6.8,14.4
						s-2.6,10.1-6.6,14.1l-0.1,0.1l0,0l-0.2,0.2c-4.2,4.2-5.5,9.4-6.8,14.4S48,100,44,104s-9.1,5.3-14.1,6.6s-10.2,2.6-14.4,6.8
						s-5.5,9.4-6.8,14.4c-0.6,2.7-1.4,5.3-2.5,7.9l-0.1,0.2l0.7,0.3L7,140c1.1-2.6,1.9-5.3,2.5-8C10.8,127,12.1,121.9,16.1,117.9z" style="fill:#ABB9FF;" />
					<path class="st4" d="M13.3,115.1c4-4,9.1-5.3,14.1-6.6s10.2-2.6,14.4-6.8s5.5-9.4,6.8-14.4s2.6-10.1,6.6-14.1l0.1-0.1l0,0
						l0.2-0.2c4.2-4.2,5.5-9.4,6.8-14.4s2.6-10,6.6-14.1s9.1-5.3,14.1-6.6s10.2-2.6,14.4-6.8s5.5-9.4,6.8-14.4
						c0.6-2.7,1.4-5.3,2.5-7.9l0.1-0.2l-0.7-0.3l-0.1,0.2c-1.1,2.6-1.9,5.3-2.5,8c-1.3,4.9-2.6,10-6.6,14.1s-9.1,5.3-14.1,6.6
						s-10.2,2.6-14.4,6.8s-5.5,9.4-6.8,14.4s-2.6,10.1-6.6,14.1l-0.1,0.1l0,0l-0.2,0.2c-4.2,4.2-5.5,9.4-6.8,14.4s-2.6,10-6.6,14.1
						s-9.1,5.3-14.1,6.6s-10.2,2.6-14.4,6.8S7.3,124,6,129c-0.6,2.7-1.4,5.3-2.5,7.9l-0.1,0.2l0.7,0.3l0.1-0.2c1-2.6,1.9-5.3,2.5-8
						C8,124.2,9.3,119.1,13.3,115.1z" style="fill:#ABB9FF;" />
					<path class="st4" d="M10.6,112.4c4-4,9.1-5.3,14.1-6.6S34.9,103.2,39,99s5.5-9.4,6.8-14.4s2.6-10.1,6.6-14.1l0.1-0.1l0,0
						l0.2-0.2c4.2-4.2,5.5-9.4,6.8-14.4s2.6-10,6.6-14.1s9.1-5.3,14.1-6.6s10.2-2.6,14.4-6.8s5.5-9.4,6.8-14.4
						c0.6-2.7,1.4-5.3,2.5-7.9l0.1-0.2l-0.7-0.3l-0.1,0.2c-1,2.6-1.9,5.3-2.5,8C99.3,18.9,98,24,94,28s-9.1,5.3-14.1,6.6
						s-10.2,2.6-14.4,6.8s-5.5,9.3-6.8,14.4s-2.6,10-6.6,14.1l-0.1,0.1l0,0L51.9,70c-4.2,4.2-5.5,9.4-6.8,14.4s-2.6,10.1-6.6,14.1
						s-9.1,5.3-14.1,6.6s-10.2,2.6-14.4,6.8s-5.5,9.4-6.8,14.4c-0.6,2.7-1.4,5.3-2.5,7.9l-0.1,0.2l0.7,0.3l0.1-0.2
						c1-2.6,1.9-5.3,2.5-8C5.3,121.5,6.6,116.4,10.6,112.4z" style="fill:#ABB9FF;" />
					<path class="st4" d="M7.8,109.6c4-4,9.1-5.3,14.1-6.6s10.3-2.6,14.4-6.8s5.5-9.4,6.8-14.4s2.6-10,6.6-14.1l0.1-0.1l0,0l0.2-0.2
						c4.2-4.2,5.5-9.4,6.8-14.4s2.6-10.1,6.6-14.1s9.1-5.3,14.1-6.6s10.2-2.6,14.4-6.8s5.5-9.4,6.8-14.4C99.1,8.6,100,6,101,3.4
						l0.1-0.2L100.4,3l-0.1,0.2c-1,2.6-1.9,5.3-2.5,8c-1.3,4.9-2.6,10.1-6.6,14.1s-9.1,5.3-14.1,6.6c-4.9,1.3-10.2,2.6-14.4,6.8
						S57.3,48,56,53s-2.6,10-6.6,14.1l-0.1,0.1l0,0l-0.2,0.2c-4.2,4.2-5.5,9.4-6.8,14.4s-2.6,10.1-6.6,14.1s-9.1,5.3-14.1,6.6
						s-10.2,2.7-14.4,6.8s-5.5,9.4-6.8,14.4c-0.6,2.7-1.4,5.3-2.5,7.9l-0.1,0.2l0.7,0.3l0.1-0.2c1.1-2.6,1.9-5.3,2.5-8
						C2.5,118.8,3.8,113.6,7.8,109.6z" style="fill:#ABB9FF;" />
					<path class="st4" d="M5.1,106.9c4-4,9.1-5.3,14.1-6.6s10.2-2.6,14.4-6.8s5.4-9.4,6.8-14.4s2.6-10,6.6-14.1l0.1,0l0,0l0.2-0.2
						c4.2-4.2,5.5-9.4,6.8-14.4s2.6-10,6.6-14.1s9.1-5.4,14.1-6.6S84.8,27.1,89,23s5.5-9.4,6.8-14.4c0.6-2.7,1.4-5.3,2.5-7.9
						l0.1-0.2l-0.7-0.3l-0.1,0.2c-1.1,2.6-1.9,5.3-2.5,8c-1.3,4.9-2.6,10.1-6.6,14.1s-9.1,5.3-14.1,6.6S64.2,31.7,60,35.8
						s-5.5,9.4-6.8,14.4s-2.6,10.1-6.6,14.1l-0.1,0.1l0,0l-0.2,0.2c-4.2,4.2-5.5,9.4-6.8,14.4S37.1,89,33,93s-9.1,5.3-14,6.6
						s-10.2,2.6-14.4,6.8s-5.5,9.4-6.8,14.4c-0.6,2.7-1.4,5.3-2.5,7.9l-0.1,0.2l0.7,0.3L-4,129c1.1-2.6,1.9-5.3,2.5-8
						C-0.2,116,1.1,110.9,5.1,106.9z" style="fill:#ABB9FF;" />
					<path class="st4" d="M2.3,104.1c4-4,9.1-5.3,14.1-6.6s10.2-2.6,14.4-6.8s5.5-9.4,6.8-14.4s2.6-10.1,6.6-14.1l0.1-0.1l0,0
						l0.2-0.2c4.2-4.2,5.5-9.4,6.8-14.4s2.6-10,6.6-14.1s9.1-5.3,14.1-6.6s10.2-2.6,14.4-6.8s5.5-9.3,6.8-14.4
						c0.6-2.7,1.4-5.3,2.5-7.9l0.1-0.2l-0.7-0.3l-0.1,0.2c-1.1,2.6-1.9,5.3-2.5,8c-1.3,5-2.6,10.1-6.6,14.1s-9.1,5.3-14.1,6.6
						s-10.2,2.6-14.4,6.8s-5.5,9.4-6.8,14.4s-2.6,10-6.6,14.1l-0.1,0.1l0,0l-0.2,0.2c-4.2,4.2-5.5,9.4-6.8,14.4s-2.6,10-6.6,14.1
						s-9.1,5.3-14.1,6.6S6,99.5,1.8,103.6S-3.7,113-4.9,118c-0.6,2.7-1.4,5.3-2.5,7.9l-0.1,0.2l0.7,0.3l0.1-0.2c1-2.6,1.9-5.3,2.5-8
						C-3,113.2-1.7,108.1,2.3,104.1z" style="fill:#ABB9FF;" />
					<path class="st4" d="M0.1,101.5c4-4,9.1-5.3,14.1-6.6s10.2-2.6,14.4-6.8s5.5-9.4,6.8-14.4s2.6-10,6.6-14.1l0.1-0.1l0,0l0.2-0.2
						c4.2-4.2,5.5-9.4,6.8-14.4S51.5,35,55.5,31s9.1-5.3,14.1-6.6s10.2-2.6,14.4-6.8s5.5-9.4,6.8-14.4c0.6-2.7,1.4-5.3,2.5-7.9
						l0.1-0.2l-0.7-0.3L92.6-5c-1,2.6-1.9,5.3-2.5,8c-1.3,5-2.6,10.1-6.6,14.1s-9.1,5.3-14.1,6.6S59.1,26.3,55,30.5
						s-5.5,9.4-6.8,14.4S45.6,54.9,41.6,59l-0.1,0.1l0,0l-0.2,0.2c-4.2,4.2-5.5,9.4-6.8,14.4s-2.6,10-6.6,14.1s-9.1,5.3-14,6.5
						S3.7,96.8-0.4,101s-5.5,9.4-6.8,14.4c-0.6,2.7-1.4,5.3-2.5,7.9l-0.1,0.2l0.7,0.3l0.1-0.2c1-2.6,1.9-5.3,2.5-8
						C-5.2,110.6-3.9,105.5,0.1,101.5z" style="fill:#ABB9FF;" />
					<path class="st4" d="M-2.7,98.8c4-4,9.1-5.3,14.1-6.6s10.2-2.6,14.4-6.8S31.3,76,32.6,71s2.6-10,6.6-14.1l0.1-0.1l0,0l0.2-0.2
						c4.2-4.2,5.5-9.4,6.8-14.4s2.6-10,6.6-14.1s9.1-5.3,14.1-6.6s10.2-2.6,14.4-6.8S86.7,5.5,88,0.5c0.6-2.7,1.4-5.3,2.5-7.9
						l0.1-0.2l-0.7-0.3l-0.1,0.2c-1,2.6-1.9,5.3-2.5,8c-1.3,4.9-2.6,10-6.6,14.1s-9.1,5.3-14.1,6.6s-10.2,2.6-14.4,6.8
						s-5.5,9.4-6.8,14.4s-2.6,10-6.6,14.1l-0.1,0.1l0,0l-0.2,0.2c-4.2,4.2-5.5,9.4-6.8,14.4s-2.6,10-6.6,14s-9.1,5.3-14.1,6.6
						S1,94.1-3.2,98.3s-5.5,9.4-6.8,14.4c-0.6,2.7-1.4,5.3-2.5,7.9l-0.1,0.2l0.7,0.3l0.1-0.2c1.1-2.6,1.9-5.3,2.5-8
						C-8,107.9-6.7,102.8-2.7,98.8z" style="fill:#ABB9FF;" />
					<path class="st4" d="M-5.4,96c4-4,9.1-5.3,14.1-6.6s10.2-2.6,14.4-6.8s5.5-9.4,6.8-14.4s2.6-10.1,6.6-14.1l0.1-0.1l0,0l0.2-0.2
						c4.2-4.2,5.5-9.4,6.8-14.4s2.6-10,6.6-14.1s9.1-5.3,14.1-6.6s10.2-2.6,14.4-6.8S84,2.8,85.2-2.3c0.6-2.7,1.4-5.3,2.5-7.9
						l0.1-0.2l-0.7-0.3l-0.1,0.2c-1.1,2.6-1.9,5.3-2.5,8C83.3,2.5,82,7.6,78,11.6s-9.2,5.4-14.1,6.6S53.6,20.8,49.5,25
						s-5.5,9.3-6.8,14.4s-2.6,10.1-6.6,14.1L36,53.5l0,0l-0.2,0.2c-4.2,4.2-5.5,9.4-6.8,14.4s-2.6,10.1-6.6,14.1s-9.1,5.3-14.1,6.6
						s-10.2,2.6-14.4,6.8s-5.5,9.4-6.8,14.4c-0.6,2.7-1.4,5.3-2.5,7.9l-0.1,0.2l0.7,0.3l0.1-0.2c1.1-2.6,1.9-5.3,2.5-8
						C-10.8,105.2-9.4,100-5.4,96z" style="fill:#ABB9FF;" />
					<path class="st4" d="M-8.2,93.3c4-4,9.1-5.3,14.1-6.6s10.2-2.6,14.4-6.8s5.5-9.4,6.8-14.4s2.6-10,6.6-14.1l0.1-0.1l0,0l0.2-0.2
						c4.2-4.2,5.5-9.4,6.8-14.4s2.6-10.1,6.6-14.1s9.1-5.3,14.1-6.6s10.2-2.6,14.4-6.8S81.2,0,82.5-5c0.6-2.7,1.5-5.4,2.5-7.9
						l0.1-0.2l-0.7-0.3l-0.1,0.2c-1,2.6-1.9,5.3-2.5,8c-1.3,5-2.6,10.1-6.6,14.1s-9.1,5.3-14.1,6.6s-10.2,2.6-14.4,6.8
						s-5.5,9.4-6.7,14.4s-2.6,10.1-6.6,14.1l-0.1,0.1l0,0l-0.2,0.2c-4.1,4.2-5.5,9.4-6.8,14.4s-2.6,10-6.6,14.1S10.7,84.7,5.7,86
						s-10.2,2.6-14.4,6.8s-5.5,9.4-6.8,14.4c-0.6,2.7-1.4,5.3-2.5,7.9l-0.1,0.2l0.7,0.3l0.1-0.2c1-2.6,1.9-5.3,2.5-8
						C-13.5,102.4-12.2,97.3-8.2,93.3z" style="fill:#ABB9FF;" />
					<path class="st4" d="M-10.9,90.5c4-4,9.1-5.3,14.1-6.6s10.2-2.6,14.4-6.8s5.5-9.4,6.8-14.4s2.6-10.1,6.6-14.1l0.1-0.1l0,0
						l0.1-0.2c4.1-4.2,5.5-9.4,6.8-14.4S40.5,24,44.5,20s9.1-5.3,14.1-6.6S68.8,10.8,73,6.6s5.5-9.4,6.8-14.4
						c0.6-2.7,1.4-5.3,2.5-7.9l0.1-0.2l-0.7-0.3l-0.1,0.2c-1,2.6-1.9,5.3-2.5,8C77.8-3,76.5,2.1,72.5,6.1s-9.1,5.3-14.1,6.6
						S48.1,15.3,44,19.5s-5.5,9.4-6.8,14.4S34.7,44,30.6,48l-0.1,0.1l0,0l-0.1,0.2c-4.1,4.2-5.5,9.4-6.8,14.4s-2.6,10-6.6,14.1
						S7.9,82,3,83.2S-7.3,85.9-11.4,90s-5.5,9.4-6.8,14.4c-0.6,2.7-1.4,5.3-2.5,7.9l-0.1,0.2l0.7,0.3l0.1-0.2c1-2.6,1.9-5.3,2.5-8
						C-16.2,99.7-14.9,94.5-10.9,90.5z" style="fill:#ABB9FF;" />
					<path class="st4" d="M-13.7,87.8c4-4,9.1-5.3,14.1-6.6s10.2-2.6,14.4-6.8s5.5-9.4,6.8-14.4s2.6-10,6.6-14l0.1-0.1l0,0l0.1-0.2
						c4.2-4.2,5.5-9.4,6.8-14.4s2.6-10,6.6-14.1s9.1-5.3,14.1-6.6s10.2-2.6,14.4-6.8s5.5-9.4,6.8-14.4c0.6-2.7,1.4-5.3,2.5-7.9
						l0.1-0.2l-0.7-0.3l-0.1,0.2c-1,2.6-1.9,5.3-2.5,8c-1.3,5-2.6,10.1-6.6,14.1S60.6,8.7,55.6,10s-10.2,2.6-14.4,6.8
						s-5.5,9.4-6.8,14.4s-2.6,10-6.6,14l-0.1,0.1l0,0l-0.2,0.2c-4.1,4.2-5.5,9.4-6.8,14.4s-2.6,10.1-6.6,14.1s-9.1,5.3-14.1,6.6
						s-10.2,2.6-14.4,6.8s-5.5,9.4-6.8,14.4c-0.6,2.7-1.4,5.3-2.5,7.9l-0.1,0.2l0.7,0.3l0.1-0.2c1-2.6,1.9-5.3,2.5-8
						C-19,96.9-17.7,91.8-13.7,87.8z" style="fill:#ABB9FF;" />
					<path class="st4" d="M-16.4,85c4-4,9.1-5.3,14.1-6.6s10.2-2.6,14.4-6.8s5.5-9.4,6.8-14.4s2.6-10,6.6-14l0.1-0.1l0,0l0.1-0.2
						c4.2-4.2,5.5-9.4,6.8-14.4c1.3-5,2.6-10.1,6.6-14.1s9.1-5.3,14.1-6.6s10.2-2.6,14.4-6.8s5.5-9.4,6.8-14.4
						c0.6-2.7,1.4-5.3,2.5-7.9l0.1-0.2l-0.7-0.3l-0.1,0.2c-1.1,2.6-1.9,5.3-2.5,8C72.3-8.5,71-3.4,67,0.6S57.8,6,52.9,7.2
						S42.7,9.9,38.5,14s-5.5,9.4-6.8,14.4s-2.6,10.1-6.6,14.1l-0.1,0.1l0,0l-0.1,0.2c-4.2,4.2-5.5,9.4-6.8,14.4s-2.6,10.1-6.6,14.1
						s-9.1,5.3-14.1,6.6s-10.2,2.6-14.4,6.8s-5.5,9.4-6.8,14.4c-0.6,2.7-1.4,5.3-2.5,7.9l-0.1,0.2l0.7,0.3l0.1-0.2
						c1-2.6,1.9-5.3,2.5-8C-21.7,94.2-20.4,89.1-16.4,85z" style="fill:#ABB9FF;" />
					<path class="st4" d="M-19.2,82.3c4-4,9.1-5.3,14.1-6.6s10.2-2.6,14.4-6.8s5.5-9.4,6.8-14.4s2.6-10,6.6-14.1l0.1-0.1l0,0
						l0.1-0.2c4.1-4.2,5.5-9.4,6.8-14.4s2.6-10.1,6.6-14.1s9.1-5.3,14.1-6.6s10.2-2.6,14.4-6.8S70.2-11,71.5-16
						c0.6-2.7,1.5-5.3,2.5-7.9l0.1-0.2l-0.7-0.3l-0.1,0.2c-1,2.6-1.9,5.3-2.5,8c-1.3,4.9-2.6,10.1-6.6,14.1s-9.2,5.3-14.1,6.6
						s-10.2,2.6-14.4,6.8s-5.5,9.4-6.8,14.4s-2.6,10.1-6.6,14.1l-0.1,0.1l0,0L22.2,40c-4.1,4.2-5.5,9.4-6.8,14.4s-2.6,10-6.6,14.1
						S-0.3,73.7-5.3,75s-10.2,2.6-14.4,6.8s-5.5,9.4-6.8,14.4c-0.6,2.7-1.4,5.3-2.5,7.9l-0.1,0.2l0.7,0.3l0.1-0.2
						c1-2.6,1.9-5.3,2.5-8C-24.5,91.4-23.2,86.3-19.2,82.3z" style="fill:#ABB9FF;" />
					<path class="st4" d="M-21.9,79.5c4-4,9.1-5.3,14.1-6.6s10.2-2.6,14.4-6.8s5.5-9.4,6.8-14.4s2.6-10.1,6.6-14.1l0.1-0.1l0,0
						l0.1-0.2c4.1-4.2,5.5-9.4,6.8-14.4S29.5,13,33.5,9s9.1-5.3,14.1-6.6S57.8-0.2,62-4.3s5.5-9.4,6.8-14.4c0.6-2.7,1.4-5.3,2.5-7.9
						l0.1-0.2l-0.7-0.3l-0.1,0.2c-1,2.6-1.9,5.3-2.5,8C66.8-14,65.5-8.9,61.5-4.9s-9.1,5.3-14.1,6.6S37.2,4.3,33,8.5
						s-5.5,9.4-6.8,14.4S23.7,33,19.6,37l-0.1,0.1l0,0l-0.1,0.2c-4.1,4.2-5.5,9.4-6.8,14.4s-2.6,10-6.6,14.1S-3.1,71-8,72.2
						s-10.3,2.6-14.4,6.8s-5.5,9.4-6.8,14.4c-0.6,2.7-1.4,5.3-2.5,7.9l-0.1,0.2l0.6,0.3l0.1-0.2c1-2.6,1.9-5.3,2.5-8
						C-27.2,88.7-25.9,83.6-21.9,79.5z" style="fill:#ABB9FF;" />
					<path class="st4" d="M-24.7,76.8c4-4,9.1-5.3,14.1-6.6s10.2-2.6,14.4-6.8s5.5-9.4,6.8-14.4s2.6-10,6.6-14l0.1-0.1l0,0l0.1-0.2
						c4.2-4.2,5.5-9.4,6.8-14.4s2.6-10.1,6.6-14.1s9.1-5.4,14.1-6.6s10.2-2.6,14.4-6.8s5.5-9.4,6.8-14.4c0.6-2.7,1.4-5.3,2.5-7.9
						l0.1-0.2l-0.7-0.3l-0.1,0.2c-1,2.6-1.9,5.3-2.5,8c-1.3,4.9-2.6,10.1-6.6,14.1S49.6-2.3,44.7-1S34.4,1.6,30.2,5.8
						s-5.5,9.4-6.8,14.4s-2.6,10-6.6,14.1l-0.1,0.1l0,0l-0.1,0.2c-4.2,4.2-5.5,9.4-6.8,14.4S7.3,58.9,3.3,62.9s-9.1,5.3-14.1,6.6
						s-10.2,2.6-14.4,6.8s-5.5,9.4-6.8,14.4c-0.6,2.7-1.4,5.3-2.5,7.9l-0.1,0.2l0.7,0.3l0.1-0.2c1.1-2.6,1.9-5.3,2.5-8
						C-30,85.9-28.7,80.8-24.7,76.8z" style="fill:#ABB9FF;" />
					<path class="st4" d="M-27.4,74c4-4,9.1-5.3,14.1-6.6s10.2-2.6,14.4-6.8s5.5-9.4,6.8-14.4s2.6-10.1,6.6-14.1l0.1-0.1l0,0
						l0.1-0.1c4.2-4.2,5.5-9.4,6.8-14.4s2.6-10,6.6-14s9.1-5.3,14.1-6.6s10.2-2.6,14.4-6.8s5.5-9.4,6.8-14.4
						c0.6-2.7,1.4-5.3,2.5-7.9l0.1-0.2l-0.7-0.3l-0.1,0.2c-1.1,2.6-1.9,5.3-2.5,8c-1.3,5-2.6,10.1-6.6,14.1S46.8-5,41.9-3.8
						S31.7-1.1,27.5,3s-5.5,9.4-6.8,14.4s-2.6,10.1-6.6,14.1l-0.1,0.1l0,0l-0.1,0.1c-4.2,4.2-5.5,9.4-6.8,14.4S4.6,56.2,0.6,60.2
						s-9.1,5.3-14.1,6.6s-10.2,2.6-14.4,6.8s-5.5,9.4-6.8,14.4c-0.6,2.7-1.4,5.3-2.5,7.9l-0.1,0.2l0.7,0.3l0.1-0.2
						c1-2.6,1.9-5.3,2.5-8C-32.7,83.2-31.4,78.1-27.4,74z" style="fill:#ABB9FF;" />
					<path class="st4" d="M-30.1,71.3c4-4,9.1-5.3,14.1-6.6s10.2-2.6,14.4-6.8s5.5-9.4,6.8-14.4s2.6-10,6.6-14.1l0.1-0.1l0,0
						l0.1-0.1c4.1-4.1,5.5-9.4,6.8-14.4s2.6-10.1,6.6-14.1s9.1-5.3,14.1-6.6s10.2-2.6,14.4-6.8S59.2-22,60.5-27
						c0.6-2.7,1.5-5.3,2.5-7.9l0.1-0.2l-0.7-0.3l-0.1,0.2c-1,2.6-1.9,5.3-2.5,8c-1.3,5-2.6,10.1-6.6,14.1s-9.1,5.3-14.1,6.6
						S28.9-3.9,24.8,0.3S19.3,9.6,18,14.7s-2.6,10.1-6.6,14.1l-0.1,0.1l0,0L11.2,29C7,33.1,5.7,38.3,4.4,43.4s-2.6,10-6.6,14.1
						s-9.1,5.3-14.1,6.6s-10.2,2.6-14.4,6.8s-5.5,9.4-6.8,14.4c-0.6,2.7-1.4,5.3-2.5,7.9l-0.1,0.2l0.7,0.3l0.1-0.2
						c1-2.6,1.9-5.3,2.5-8C-35.5,80.4-34.2,75.3-30.1,71.3z" style="fill:#ABB9FF;" />
					<path class="st4" d="M-32.9,68.6c4-4,9.1-5.3,14.1-6.6s10.2-2.6,14.4-6.8s5.5-9.4,6.8-14.4s2.6-10.1,6.6-14.1L9,26.6l0,0
						l0.1-0.2c4.1-4.1,5.5-9.4,6.8-14.4S18.5,2,22.5-2s9.1-5.3,14.1-6.6s10.2-2.6,14.4-6.8s5.5-9.4,6.8-14.4
						c0.6-2.7,1.4-5.3,2.5-7.9l0.1-0.2l-0.7-0.3l-0.1,0.2c-1,2.6-1.9,5.3-2.5,8c-1.3,5-2.6,10.1-6.6,14.1s-9.1,5.3-14.1,6.6
						S26.2-6.6,22-2.5s-5.5,9.4-6.8,14.4S12.7,22,8.6,26l-0.1,0.1l0,0l-0.1,0.1C4.3,30.4,3,35.6,1.7,40.6s-2.6,10-6.6,14.1
						S-14.1,60-19,61.3s-10.2,2.6-14.4,6.7s-5.5,9.4-6.8,14.4c-0.6,2.7-1.4,5.3-2.5,7.9l-0.1,0.2l0.7,0.3l0.1-0.2
						c1.1-2.6,1.9-5.3,2.5-8C-38.2,77.7-36.9,72.6-32.9,68.6z" style="fill:#ABB9FF;" />
					<path class="st4" d="M-35.7,65.8c4-4,9.1-5.3,14.1-6.6s10.2-2.6,14.4-6.8s5.5-9.4,6.8-14.4s2.6-10,6.6-14l0.1-0.1l0,0l0.2-0.1
						c4.2-4.2,5.5-9.4,6.8-14.4s2.6-10.1,6.6-14.1s9.1-5.3,14.1-6.6s10.2-2.6,14.4-6.8s5.5-9.4,6.8-14.4c0.6-2.7,1.4-5.3,2.5-7.9
						l0.1-0.2l-0.7-0.3l-0.1,0.2c-1.1,2.6-1.9,5.3-2.5,8c-1.3,4.9-2.6,10-6.6,14.1s-9.1,5.3-14.1,6.6S23.4-9.4,19.3-5.2
						s-5.5,9.4-6.8,14.4s-2.6,10-6.6,14.1l-0.1,0.1l0,0l-0.2,0.1c-4.2,4.2-5.5,9.4-6.8,14.4s-2.6,10.1-6.6,14.1s-9.1,5.3-14.1,6.6
						s-10.2,2.6-14.4,6.8s-5.5,9.4-6.8,14.4c-0.6,2.7-1.4,5.3-2.5,7.9l-0.1,0.2l0.7,0.3l0.1-0.2c1-2.6,1.9-5.3,2.5-8
						C-41,74.9-39.7,69.8-35.7,65.8z" style="fill:#ABB9FF;" />
					<path class="st4" d="M130.6,33.2l-0.1,0.2c-1.1,2.6-1.9,5.3-2.5,8c-1.3,5-2.6,10.1-6.6,14.1s-9.1,5.3-14.1,6.6
						S97.1,64.7,93,68.8s-5.5,9.4-6.8,14.4s-2.6,10.1-6.6,14.1l-0.1,0.1l0,0l-0.2,0.2c-4.2,4.2-5.5,9.4-6.8,14.4S70,122,66,126
						s-9.1,5.3-14,6.6s-10.2,2.6-14.4,6.8s-5.5,9.4-6.8,14.4c-0.6,2.7-1.4,5.3-2.5,7.9l-0.1,0.2l0.7,0.3l0.1-0.2
						c1.1-2.6,1.9-5.3,2.5-8c1.3-4.9,2.6-10,6.6-14.1s9.1-5.3,14.1-6.6s10.2-2.6,14.4-6.8s5.5-9.4,6.8-14.4S75.9,102,79.9,98
						l0.1-0.1l0,0l0.2-0.2c4.2-4.2,5.5-9.4,6.8-14.4s2.6-10,6.6-14.1s9.1-5.3,14.1-6.6s10.2-2.6,14.4-6.8s5.5-9.4,6.8-14.4
						c0.6-2.7,1.4-5.3,2.5-7.9l0.1-0.2L130.6,33.2z" style="fill:#ABB9FF;" />
				</g>
			</g>
		</g>
		<path class="st5" d="M66.4,52.2V33.5H47.8c-7.9,0-14.2,6.4-14.2,14.2c0,0,0,0,0,0v18.7h18.7C60.1,66.5,66.4,60.1,66.4,52.2
			C66.5,52.2,66.5,52.2,66.4,52.2z" style="fill:#00DAAF;" />
		<polyline class="st6" points="85.3,6.4 85.3,16.7 96.3,16.7 		" style="fill:none;stroke:#00DAAF;stroke-width:2;stroke-linecap:round;stroke-linejoin:round;" />
		<line class="st7" x1="85.3" y1="16.7" x2="92.5" y2="10.1" style="fill:none;stroke:#4463FF;stroke-width:2;stroke-linecap:round;stroke-linejoin:round;" />
		<polyline class="st6" points="16,94.4 16,84.1 5.1,84.1 		" style="fill:none;stroke:#00DAAF;stroke-width:2;stroke-linecap:round;stroke-linejoin:round;" />
		<line class="st7" x1="16" y1="84.1" x2="8.9" y2="90.8" style="fill:none;stroke:#4463FF;stroke-width:2;stroke-linecap:round;stroke-linejoin:round;" />
	</g>
</g>
</svg>
